<svg width="147" height="16" viewBox="0 0 147 16" fill="none" xmlns="http://www.w3.org/2000/svg">
<path d="M0 15.2861V0.24707H4.68359C7.01465 0.24707 8.08887 1.25684 8.08887 3.41602V4.66211C8.08887 6.20898 7.42285 6.98242 6.24121 7.31543V7.53027C7.61621 7.89551 8.36816 8.79785 8.36816 10.5596V11.9023C8.36816 14.2012 7.22949 15.2861 4.83398 15.2861H0ZM2.96484 6.4668H4.07129C4.84473 6.4668 5.17773 6.12305 5.17773 5.28516V3.75977C5.17773 2.92188 4.84473 2.55664 4.07129 2.55664H2.96484V6.4668ZM2.96484 12.9658H4.13574C4.93066 12.9658 5.2959 12.5684 5.2959 11.6338V9.8291C5.2959 8.90527 4.93066 8.51855 4.13574 8.51855H2.96484V12.9658ZM8.63672 15.2861L11.376 0.24707H15.2217L18.0254 15.2861H14.9102L14.5986 13.1377H11.8057L11.5049 15.2861H8.63672ZM12.1709 11.0322H14.2441L13.7178 7.82031C13.5459 6.24121 13.417 5.12402 13.3203 3.53418H13.0947C13.0088 5.12402 12.8799 6.24121 12.708 7.80957L12.1709 11.0322ZM18.7559 15.2861V0.24707H22.2363L24.3955 7.46582C24.6533 8.34668 24.9004 9.35645 25.1582 10.71L25.3838 10.6885C25.2227 8.76562 25.0938 6.83203 25.0938 5.27441V0.24707H27.9834V15.2861H24.5029L22.4404 8.48633C22.1074 7.22949 21.8818 6.34863 21.5703 4.69434L21.3447 4.72656C21.4951 6.42383 21.6455 8.92676 21.6455 10.6455V15.2861H18.7559ZM33.1719 15.5332C30.4863 15.5332 28.9824 14.1582 28.9824 11.0859V10.5811L31.7754 10.2158V10.8389C31.7754 12.708 32.2051 13.3203 33.2793 13.3203C33.9883 13.3203 34.4072 12.8799 34.4072 12.1602C34.4072 11.1611 33.9346 10.2695 32.6992 9.09863L31.4639 7.92773C30.207 6.74609 29.1006 5.59668 29.1113 3.62012C29.1221 1.21387 30.4863 0 33.0107 0C35.6641 0 36.9961 1.31055 36.9961 4.2002V4.6084L34.3643 4.94141V4.41504C34.3643 2.76074 33.8916 2.19141 32.9785 2.19141C32.3018 2.19141 31.915 2.57812 31.915 3.20117C31.915 3.96387 32.248 4.76953 33.5693 5.94043L34.8369 7.08984C36.0938 8.23926 37.2969 9.43164 37.2969 11.6768C37.2969 14.1582 35.8252 15.5332 33.1719 15.5332ZM40.0469 15.2861V2.66406H37.501V0.24707H45.5576V2.66406H43.0117V15.2861H40.0469ZM50.4238 15.5439C47.459 15.5439 46.0088 13.9863 46.0088 10.5488V5.0918C46.0088 1.58984 47.459 0 50.4238 0C53.3779 0 54.8281 1.58984 54.8281 5.0918V10.5488C54.8281 13.9863 53.3779 15.5439 50.4238 15.5439ZM50.4238 13.2129C51.3799 13.2129 51.8311 12.5254 51.8311 11.0859V4.54395C51.8311 3.04004 51.3799 2.32031 50.4238 2.32031C49.4678 2.32031 49.0059 3.04004 49.0059 4.54395V11.0859C49.0059 12.5254 49.4678 13.2129 50.4238 13.2129ZM55.9453 15.2861V0.24707H58.9102V12.8584H62.2939V15.2861H55.9453ZM62.7559 15.2861L65.4951 0.24707H69.3408L72.1445 15.2861H69.0293L68.7178 13.1377H65.9248L65.624 15.2861H62.7559ZM66.29 11.0322H68.3633L67.8369 7.82031C67.665 6.24121 67.5361 5.12402 67.4395 3.53418H67.2139C67.1279 5.12402 66.999 6.24121 66.8271 7.80957L66.29 11.0322ZM75.1094 15.2861V0.24707H79.793C82.124 0.24707 83.1982 1.25684 83.1982 3.41602V4.66211C83.1982 6.20898 82.5322 6.98242 81.3506 7.31543V7.53027C82.7256 7.89551 83.4775 8.79785 83.4775 10.5596V11.9023C83.4775 14.2012 82.3389 15.2861 79.9434 15.2861H75.1094ZM78.0742 6.4668H79.1807C79.9541 6.4668 80.2871 6.12305 80.2871 5.28516V3.75977C80.2871 2.92188 79.9541 2.55664 79.1807 2.55664H78.0742V6.4668ZM78.0742 12.9658H79.2451C80.04 12.9658 80.4053 12.5684 80.4053 11.6338V9.8291C80.4053 8.90527 80.04 8.51855 79.2451 8.51855H78.0742V12.9658ZM84.3906 15.2861V0.24707H88.7842C91.2764 0.24707 92.5547 1.42871 92.5547 3.67383V4.6084C92.5547 6.24121 91.8027 7.26172 90.4062 7.54102V7.71289C91.5449 8.0459 91.9102 8.56152 92.125 10.4199L92.3398 12.2783C92.5654 14.1367 92.7588 14.6846 93.1025 15.0176L93.0703 15.2861H89.8691C89.6328 14.7168 89.5254 14.0293 89.3857 12.3857L89.2461 10.7314C89.1172 9.08789 88.8701 8.7334 88.0322 8.7334H87.3555V15.2861H84.3906ZM87.3555 6.48828H88.5049C89.2676 6.48828 89.6113 6.12305 89.6113 5.27441V3.80273C89.6113 2.93262 89.2676 2.57812 88.5049 2.57812H87.3555V6.48828ZM97.9258 15.5439C94.9609 15.5439 93.5107 13.9863 93.5107 10.5488V5.0918C93.5107 1.58984 94.9609 0 97.9258 0C100.88 0 102.33 1.58984 102.33 5.0918V10.5488C102.33 13.9863 100.88 15.5439 97.9258 15.5439ZM97.9258 13.2129C98.8818 13.2129 99.333 12.5254 99.333 11.0859V4.54395C99.333 3.04004 98.8818 2.32031 97.9258 2.32031C96.9697 2.32031 96.5078 3.04004 96.5078 4.54395V11.0859C96.5078 12.5254 96.9697 13.2129 97.9258 13.2129ZM105.338 15.2861V2.66406H102.792V0.24707H110.849V2.66406H108.303V15.2861H105.338ZM116.982 0.24707H119.958V15.2861H116.982V8.59375H114.555V15.2861H111.59V0.24707H114.555V6.21973H116.982V0.24707ZM124.223 12.8584H128.068V15.2861H121.258V0.24707H127.907V2.66406H124.223V6.40234H127.574V8.56152H124.223V12.8584ZM129.057 15.2861V0.24707H133.45C135.942 0.24707 137.221 1.42871 137.221 3.67383V4.6084C137.221 6.24121 136.469 7.26172 135.072 7.54102V7.71289C136.211 8.0459 136.576 8.56152 136.791 10.4199L137.006 12.2783C137.231 14.1367 137.425 14.6846 137.769 15.0176L137.736 15.2861H134.535C134.299 14.7168 134.191 14.0293 134.052 12.3857L133.912 10.7314C133.783 9.08789 133.536 8.7334 132.698 8.7334H132.021V15.2861H129.057ZM132.021 6.48828H133.171C133.934 6.48828 134.277 6.12305 134.277 5.27441V3.80273C134.277 2.93262 133.934 2.57812 133.171 2.57812H132.021V6.48828ZM142.184 15.5332C139.498 15.5332 137.994 14.1582 137.994 11.0859V10.5811L140.787 10.2158V10.8389C140.787 12.708 141.217 13.3203 142.291 13.3203C143 13.3203 143.419 12.8799 143.419 12.1602C143.419 11.1611 142.946 10.2695 141.711 9.09863L140.476 7.92773C139.219 6.74609 138.112 5.59668 138.123 3.62012C138.134 1.21387 139.498 0 142.022 0C144.676 0 146.008 1.31055 146.008 4.2002V4.6084L143.376 4.94141V4.41504C143.376 2.76074 142.903 2.19141 141.99 2.19141C141.313 2.19141 140.927 2.57812 140.927 3.20117C140.927 3.96387 141.26 4.76953 142.581 5.94043L143.849 7.08984C145.105 8.23926 146.309 9.43164 146.309 11.6768C146.309 14.1582 144.837 15.5332 142.184 15.5332Z" fill="#E73226"/>
</svg>
