<svg width="708" height="377" viewBox="0 0 708 377" fill="none" xmlns="http://www.w3.org/2000/svg">
<path d="M0 153.209V2.47632H46.9424C70.3059 2.47632 81.0725 12.5969 81.0725 34.2378V46.727C81.0725 62.231 74.3972 69.9829 62.554 73.3206V75.4739C76.3352 79.1345 83.8718 88.1785 83.8718 105.836V119.294C83.8718 142.334 72.4592 153.209 48.4497 153.209H0ZM29.7158 64.8149H40.8054C48.5574 64.8149 51.895 61.3696 51.895 52.9717V37.6831C51.895 29.2852 48.5574 25.6245 40.8054 25.6245H29.7158V64.8149ZM29.7158 129.953H41.4514C49.4187 129.953 53.0793 125.969 53.0793 116.602V98.5144C53.0793 89.2551 49.4187 85.3791 41.4514 85.3791H29.7158V129.953Z" fill="#E73226"/>
<path d="M84.3585 153.209L111.813 2.47632H150.358L178.459 153.209H147.235L144.113 131.676H116.12L113.105 153.209H84.3585ZM119.781 110.573H140.56L135.284 78.3809C133.562 62.554 132.27 51.3567 131.301 35.4221H129.04C128.179 51.3567 126.887 62.554 125.164 78.2732L119.781 110.573Z" fill="#E73226"/>
<path d="M183.575 153.209V2.47632H218.459L240.1 74.8279C242.683 83.6565 245.16 93.7771 247.744 107.343L250.005 107.128C248.39 87.8555 247.098 68.4756 247.098 52.864V2.47632H276.06V153.209H241.176L220.504 85.0561C217.167 72.4592 214.906 63.6306 211.783 47.05L209.522 47.373C211.03 64.3843 212.537 89.4705 212.537 106.697V153.209H183.575Z" fill="#E73226"/>
<path d="M325.858 155.685C298.941 155.685 283.868 141.904 283.868 111.111V106.051L311.861 102.39V108.635C311.861 127.369 316.168 133.506 326.934 133.506C334.04 133.506 338.239 129.092 338.239 121.878C338.239 111.865 333.502 102.929 321.12 91.1931L308.739 79.4575C296.142 67.6143 285.052 56.094 285.16 36.2834C285.268 12.1663 298.941 0 324.243 0C350.836 0 364.187 13.1353 364.187 42.0974V46.1887L337.809 49.5264V44.2507C337.809 27.6702 333.071 21.9639 323.92 21.9639C317.137 21.9639 313.261 25.8398 313.261 32.0845C313.261 39.7288 316.598 47.8037 329.841 59.5393L342.546 71.0596C355.143 82.5798 367.201 94.5308 367.201 117.033C367.201 141.904 352.451 155.685 325.858 155.685Z" fill="#E73226"/>
<path d="M392.559 153.209V26.7012H367.042V2.47632H447.792V26.7012H422.275V153.209H392.559Z" fill="#E73226"/>
<path d="M494.359 155.793C464.643 155.793 450.109 140.181 450.109 105.728V51.0337C450.109 15.9346 464.643 0 494.359 0C523.967 0 538.502 15.9346 538.502 51.0337V105.728C538.502 140.181 523.967 155.793 494.359 155.793ZM494.359 132.429C503.942 132.429 508.464 125.539 508.464 111.111V45.5427C508.464 30.4695 503.942 23.2559 494.359 23.2559C484.777 23.2559 480.147 30.4695 480.147 45.5427V111.111C480.147 125.539 484.777 132.429 494.359 132.429Z" fill="#E73226"/>
<path d="M547.495 153.209V2.47632H577.21V128.876H611.125V153.209H547.495Z" fill="#E73226"/>
<path d="M613.55 153.209L641.005 2.47632H679.549L707.65 153.209H676.427L673.304 131.676H645.311L642.297 153.209H613.55ZM648.972 110.573H669.752L664.476 78.3809C662.753 62.554 661.461 51.3567 660.492 35.4221H658.231C657.37 51.3567 656.078 62.554 654.355 78.2732L648.972 110.573Z" fill="#E73226"/>
<path d="M3.44531 373.709V222.976H50.3877C73.7512 222.976 84.5178 233.097 84.5178 254.738V267.227C84.5178 282.731 77.8425 290.483 65.9993 293.821V295.974C79.7805 299.635 87.3171 308.678 87.3171 326.336V339.794C87.3171 362.834 75.9045 373.709 51.895 373.709H3.44531ZM33.1611 285.315H44.2507C52.0027 285.315 55.3403 281.87 55.3403 273.472V258.183C55.3403 249.785 52.0027 246.125 44.2507 246.125H33.1611V285.315ZM33.1611 350.453H44.8967C52.864 350.453 56.5247 346.469 56.5247 337.102V319.014C56.5247 309.755 52.864 305.879 44.8967 305.879H33.1611V350.453Z" fill="#E73226"/>
<path d="M94.2637 373.709V222.976H138.299C163.278 222.976 176.09 234.82 176.09 257.322V266.689C176.09 283.054 168.553 293.282 154.557 296.082V297.804C165.969 301.142 169.63 306.31 171.783 324.936L173.937 343.562C176.198 362.188 178.136 367.679 181.581 371.017L181.258 373.709H149.173C146.805 368.002 145.728 361.112 144.328 344.639L142.929 328.058C141.637 311.585 139.16 308.032 130.763 308.032H123.98V373.709H94.2637ZM123.98 285.53H135.5C143.144 285.53 146.589 281.87 146.589 273.364V258.614C146.589 249.893 143.144 246.34 135.5 246.34H123.98V285.53Z" fill="#E73226"/>
<path d="M227.718 376.293C198.002 376.293 183.467 360.681 183.467 326.228V271.534C183.467 236.435 198.002 220.5 227.718 220.5C257.326 220.5 271.861 236.435 271.861 271.534V326.228C271.861 360.681 257.326 376.293 227.718 376.293ZM227.718 352.929C237.3 352.929 241.822 346.039 241.822 331.611V266.043C241.822 250.969 237.3 243.756 227.718 243.756C218.136 243.756 213.506 250.969 213.506 266.043V331.611C213.506 346.039 218.136 352.929 227.718 352.929Z" fill="#E73226"/>
<path d="M299.802 373.709V247.201H274.286V222.976H355.035V247.201H329.518V373.709H299.802Z" fill="#E73226"/>
<path d="M414.307 222.976H444.131V373.709H414.307V306.633H389.975V373.709H360.259V222.976H389.975V282.839H414.307V222.976Z" fill="#E73226"/>
<path d="M484.669 349.376H523.214V373.709H454.953V222.976H521.599V247.201H484.669V284.669H518.261V306.31H484.669V349.376Z" fill="#E73226"/>
<path d="M530.914 373.709V222.976H574.949C599.928 222.976 612.74 234.82 612.74 257.322V266.689C612.74 283.054 605.204 293.282 591.207 296.082V297.804C602.62 301.142 606.28 306.31 608.434 324.936L610.587 343.562C612.848 362.188 614.786 367.679 618.231 371.017L617.908 373.709H585.824C583.455 368.002 582.378 361.112 580.979 344.639L579.579 328.058C578.287 311.585 575.811 308.032 567.413 308.032H560.63V373.709H530.914ZM560.63 285.53H572.15C579.794 285.53 583.24 281.87 583.24 273.364V258.614C583.24 249.893 579.794 246.34 572.15 246.34H560.63V285.53Z" fill="#E73226"/>
<path d="M660.277 376.185C633.36 376.185 618.287 362.404 618.287 331.611V326.551L646.28 322.89V329.135C646.28 347.869 650.587 354.006 661.354 354.006C668.46 354.006 672.658 349.592 672.658 342.378C672.658 332.365 667.921 323.429 655.54 311.693L643.158 299.958C630.561 288.114 619.471 276.594 619.579 256.783C619.687 232.666 633.36 220.5 658.662 220.5C685.255 220.5 698.606 233.635 698.606 262.597V266.689L672.228 270.026V264.751C672.228 248.17 667.491 242.464 658.339 242.464C651.556 242.464 647.68 246.34 647.68 252.584C647.68 260.229 651.018 268.304 664.261 280.039L676.965 291.56C689.562 303.08 701.621 315.031 701.621 337.533C701.621 362.404 686.87 376.185 660.277 376.185Z" fill="#E73226"/>
<mask id="path-2-outside-1_1624_3" maskUnits="userSpaceOnUse" x="70.9697" y="96.3275" width="566" height="128" fill="black">
<rect fill="white" x="70.9697" y="96.3275" width="566" height="128"/>
<path d="M82.6872 217.479C80.1147 216.141 78.2111 214.289 76.9763 211.923C75.6386 209.453 74.9697 206.726 74.9697 203.742C74.9697 199.317 76.3074 194.996 78.9828 190.777C81.6582 186.455 85.1054 183.368 89.3243 181.516C90.5591 181.104 91.2794 180.898 91.4852 180.898C91.9997 180.898 92.3084 181.053 92.4113 181.361C92.6171 181.67 92.6171 182.082 92.4113 182.596C90.3533 186.712 89.3243 190.211 89.3243 193.092C89.3243 196.076 90.6105 197.98 93.183 198.803C94.0062 199.009 94.6236 199.112 95.0352 199.112C98.8425 199.112 101.827 196.127 103.988 190.159C106.251 184.088 107.383 176.885 107.383 168.55C107.383 164.743 108.721 161.604 111.396 159.135C114.072 156.665 116.901 155.43 119.886 155.43C121.635 155.43 122.973 155.842 123.899 156.665C125.545 158.003 126.368 159.855 126.368 162.222C126.368 164.486 125.648 166.852 124.207 169.322C122.767 171.689 120.863 173.747 118.496 175.496C118.188 175.805 117.93 175.753 117.725 175.342C117.416 174.518 117.056 173.387 116.644 171.946C116.233 170.505 115.77 169.476 115.255 168.859C114.843 168.139 114.329 167.984 113.712 168.396C112.785 169.013 112.322 170.094 112.322 171.637C112.322 172.358 112.631 174.261 113.249 177.348C114.38 182.082 114.946 185.889 114.946 188.77C114.946 192.166 114.38 195.51 113.249 198.803C114.895 199.009 117.159 197.774 120.04 195.098C122.921 192.32 126.574 188.204 130.999 182.75C131.307 182.442 131.616 182.287 131.925 182.287C132.439 182.287 132.851 182.493 133.16 182.905C133.468 183.316 133.417 183.779 133.005 184.294C124.259 196.745 116.644 205.8 110.162 211.46C103.782 217.119 97.7621 219.949 92.1026 219.949C89.1185 219.949 86.0829 219.177 82.9959 217.634L82.6872 217.479Z"/>
<path d="M121.858 218.251C118.771 216.605 117.228 213.826 117.228 209.916C117.228 204.668 119.852 197.877 125.1 189.542L130.039 181.361C135.184 173.026 139.351 166.595 142.541 162.068C145.011 158.775 147.738 157.128 150.722 157.128C152.471 157.128 154.066 157.591 155.507 158.517C157.05 159.341 158.182 160.318 158.902 161.45C159.623 162.582 159.726 163.508 159.211 164.228C156.947 167.521 155.249 169.888 154.118 171.329C149.59 177.811 146.349 182.648 144.393 185.837C142.438 188.924 141.461 191.394 141.461 193.246C141.461 194.378 141.821 195.253 142.541 195.87C143.056 196.282 143.725 196.488 144.548 196.488C147.944 196.488 153.037 192.063 159.828 183.213C160.137 182.699 160.549 182.442 161.063 182.442C161.475 182.442 161.784 182.648 161.989 183.059C162.195 183.368 162.144 183.728 161.835 184.14C155.455 194.018 148.921 202.353 142.233 209.144C135.544 215.833 129.936 219.177 125.408 219.177C124.174 219.177 122.99 218.868 121.858 218.251ZM152.728 138.298C153.654 136.137 155.044 134.49 156.896 133.358C158.748 132.124 160.755 131.506 162.915 131.506C164.562 131.506 165.951 131.763 167.083 132.278C169.038 133.204 170.53 134.593 171.559 136.445C172.691 138.195 173.257 140.15 173.257 142.311C173.257 143.854 172.948 145.398 172.331 146.941C171.302 149.102 169.707 150.903 167.546 152.343C165.385 153.681 163.121 154.35 160.755 154.35C157.77 154.35 155.455 153.372 153.809 151.417C152.265 149.462 151.494 147.096 151.494 144.317C151.494 142.259 151.905 140.253 152.728 138.298Z"/>
<path d="M149.855 217.479C146.459 215.936 144.761 213.466 144.761 210.07C144.761 207.807 145.482 205.183 146.922 202.199C148.26 199.214 150.215 195.561 152.787 191.24C160.505 178.583 167.502 168.087 173.779 159.752C175.734 156.974 178.461 155.585 181.96 155.585C183.812 155.585 185.561 155.945 187.207 156.665C188.854 157.386 190.089 158.26 190.912 159.289C191.735 160.215 191.889 161.039 191.375 161.759C188.185 165.772 184.223 170.711 179.49 176.576C174.859 182.236 171.567 186.403 169.612 189.079C167.759 191.754 166.833 193.709 166.833 194.944C166.833 195.561 167.039 195.922 167.451 196.025C168.377 196.539 169.817 195.716 171.772 193.555C173.83 191.394 176.763 187.895 180.57 183.059C187.156 174.724 192.816 168.242 197.549 163.611C202.282 158.878 206.707 156.511 210.823 156.511C211.646 156.511 212.521 156.665 213.447 156.974C216.019 157.797 217.306 159.649 217.306 162.531C217.306 164.794 216.585 167.47 215.145 170.557C213.704 173.644 211.492 177.76 208.508 182.905C206.347 186.506 204.7 189.439 203.569 191.703C202.437 193.967 201.871 195.767 201.871 197.105C201.871 197.928 202.128 198.494 202.642 198.803C203.157 199.214 203.774 199.42 204.495 199.42C206.347 199.42 208.353 198.134 210.514 195.561C212.778 192.989 215.968 188.822 220.084 183.059C220.599 182.442 221.113 182.133 221.628 182.133C222.142 182.133 222.502 182.339 222.708 182.75C223.017 183.162 222.965 183.625 222.554 184.14C216.688 193.298 210.669 201.17 204.495 207.755C198.321 214.238 192.713 217.479 187.671 217.479C186.024 217.479 184.481 217.068 183.04 216.244C180.056 214.495 178.564 212.025 178.564 208.836C178.564 205.646 179.747 202.044 182.114 198.031C184.584 193.915 187.928 189.13 192.147 183.677C194.719 180.384 196.571 177.811 197.703 175.959C198.938 174.107 199.555 172.666 199.555 171.637C199.555 171.02 199.298 170.608 198.784 170.402C197.652 169.888 196.005 170.968 193.845 173.644C191.787 176.216 188.802 180.487 184.892 186.455C178.101 196.436 172.236 204.257 167.296 209.916C162.46 215.473 157.778 218.251 153.25 218.251C152.221 218.251 151.09 217.994 149.855 217.479Z"/>
<path d="M218.385 217.17C213.24 214.495 210.667 210.173 210.667 204.205C210.667 200.295 211.748 196.025 213.909 191.394C215.967 186.661 218.848 182.03 222.552 177.503C227.697 171.123 233.408 165.823 239.685 161.604C245.962 157.283 251.725 155.122 256.972 155.122C259.648 155.122 262.015 155.791 264.073 157.128C267.571 159.289 269.32 162.222 269.32 165.926C269.32 168.705 268.343 171.329 266.388 173.798C264.844 175.856 262.786 177.503 260.214 178.737C257.744 179.972 255.069 180.59 252.188 180.59C250.027 180.59 248.123 180.332 246.477 179.818C246.271 179.715 246.117 179.509 246.014 179.2C246.014 178.892 246.117 178.686 246.322 178.583C249.718 176.422 252.702 173.798 255.275 170.711C257.847 167.521 259.133 165 259.133 163.148C259.133 162.222 258.773 161.553 258.053 161.141C257.641 160.833 257.127 160.678 256.509 160.678C254.04 160.678 250.953 162.479 247.248 166.081C243.544 169.682 240.354 173.85 237.679 178.583C235.003 183.419 233.666 187.741 233.666 191.548C233.666 194.841 234.849 197.362 237.216 199.112C238.348 199.935 239.737 200.346 241.383 200.346C244.573 200.346 248.329 198.803 252.651 195.716C256.972 192.526 261.191 188.461 265.307 183.522C265.719 183.111 266.079 182.905 266.388 182.905C266.799 182.905 267.005 183.111 267.005 183.522C267.108 183.934 267.057 184.294 266.851 184.603C260.677 194.584 253.731 202.764 246.014 209.144C238.296 215.524 231.299 218.714 225.022 218.714C222.552 218.714 220.34 218.199 218.385 217.17Z"/>
<path d="M263.812 217.17C258.667 214.495 256.095 210.173 256.095 204.205C256.095 200.295 257.175 196.025 259.336 191.394C261.394 186.661 264.275 182.03 267.98 177.503C273.125 171.123 278.836 165.823 285.112 161.604C291.389 157.283 297.152 155.122 302.4 155.122C305.075 155.122 307.442 155.791 309.5 157.128C313.101 159.392 314.902 162.273 314.902 165.772C314.902 168.447 313.873 171.123 311.815 173.798C306.876 180.487 297.306 183.831 283.106 183.831L282.025 186.455C280.894 189.336 280.328 191.909 280.328 194.172C280.328 196.436 280.996 198.083 282.334 199.112C283.569 200.038 284.958 200.501 286.502 200.501C289.794 200.501 293.602 198.906 297.923 195.716C302.348 192.526 306.619 188.461 310.735 183.522C311.146 183.111 311.506 182.905 311.815 182.905C312.227 182.905 312.432 183.111 312.432 183.522C312.535 183.934 312.484 184.294 312.278 184.603C306.104 194.584 299.158 202.764 291.441 209.144C283.723 215.524 276.726 218.714 270.449 218.714C267.98 218.714 265.767 218.199 263.812 217.17ZM284.958 180.281C287.839 179.458 290.772 177.966 293.756 175.805C296.843 173.644 299.364 171.38 301.319 169.013C303.377 166.544 304.406 164.537 304.406 162.994C304.406 162.17 304.097 161.553 303.48 161.141C302.451 160.318 300.805 160.781 298.541 162.531C296.38 164.177 294.013 166.647 291.441 169.939C288.971 173.232 286.81 176.679 284.958 180.281Z"/>
<path d="M351.758 125.95C348.98 128.111 345.944 129.86 342.651 131.198C339.358 132.432 336.271 133.05 333.39 133.05C329.48 133.05 326.599 131.918 324.747 129.654C323.306 127.905 322.586 125.95 322.586 123.789C322.586 121.628 323.255 119.518 324.592 117.46C326.033 115.402 327.731 113.859 329.686 112.83C331.744 115.197 333.647 116.946 335.397 118.078C337.146 119.107 339.564 119.621 342.651 119.621C344.092 119.621 345.79 119.467 347.745 119.158C360.196 116.894 371.669 111.801 382.165 103.878C383.194 103.157 384.12 102.797 384.943 102.797C386.178 102.797 387.104 103.672 387.721 105.421L317.029 212.231C315.897 213.775 314.096 214.958 311.627 215.781C309.157 216.502 306.379 216.862 303.292 216.862C299.793 216.862 296.861 216.45 294.494 215.627C292.127 214.804 291.304 213.826 292.024 212.694L351.758 125.95Z"/>
<path d="M337.927 215.781C337.309 215.678 336.795 215.421 336.383 215.01C335.972 214.495 335.766 213.981 335.766 213.466C335.766 213.054 335.972 212.694 336.383 212.386C336.692 212.077 337.155 211.923 337.772 211.923C351.355 211.717 365.041 207.601 378.829 199.575C392.618 191.445 404.915 180.538 415.719 166.852L419.269 162.222C407.23 171.174 397.403 175.65 389.788 175.65C386.495 175.65 383.511 174.827 380.836 173.181C374.559 169.271 371.421 163.56 371.421 156.048C371.421 151.932 372.347 147.61 374.199 143.082C376.051 138.555 378.624 134.027 381.916 129.5C388.09 121.268 395.602 114.373 404.452 108.817C413.301 103.157 421.842 100.328 430.074 100.328C433.984 100.328 437.585 100.996 440.878 102.334C446.023 104.392 449.83 107.531 452.3 111.749C454.873 115.968 456.159 121.01 456.159 126.876C456.159 133.667 454.461 141.076 451.065 149.102C447.772 157.025 443.039 164.794 436.865 172.409C426.575 185.169 413.558 195.664 397.814 203.896C382.174 212.025 365.092 216.09 346.57 216.09C344.718 216.09 341.837 215.987 337.927 215.781ZM395.036 164.383C396.683 166.029 398.895 166.852 401.673 166.852C404.76 166.852 408.31 165.823 412.323 163.765C416.336 161.707 420.247 158.981 424.054 155.585C429.713 147.559 434.241 139.995 437.637 132.895C441.032 125.795 442.73 120.033 442.73 115.608C442.73 112.212 441.598 109.846 439.335 108.508C437.894 107.685 436.299 107.273 434.55 107.273C429.713 107.273 424.157 110 417.88 115.454C411.603 120.908 406.098 127.39 401.364 134.902C398.689 139.121 396.58 143.237 395.036 147.25C393.493 151.16 392.721 154.607 392.721 157.591C392.721 160.37 393.493 162.633 395.036 164.383Z"/>
<path d="M425.918 215.781C425.301 215.678 424.786 215.421 424.375 215.01C423.963 214.495 423.757 213.981 423.757 213.466C423.757 213.054 423.963 212.694 424.375 212.386C424.683 212.077 425.146 211.923 425.764 211.923C439.347 211.717 453.032 207.601 466.821 199.575C480.61 191.445 492.906 180.538 503.711 166.852L507.261 162.222C495.221 171.174 485.394 175.65 477.78 175.65C474.487 175.65 471.503 174.827 468.828 173.181C462.551 169.271 459.412 163.56 459.412 156.048C459.412 151.932 460.338 147.61 462.19 143.082C464.043 138.555 466.615 134.027 469.908 129.5C476.082 121.268 483.594 114.373 492.443 108.817C501.292 103.157 509.833 100.328 518.065 100.328C521.975 100.328 525.577 100.996 528.87 102.334C534.015 104.392 537.822 107.531 540.292 111.749C542.864 115.968 544.15 121.01 544.15 126.876C544.15 133.667 542.452 141.076 539.057 149.102C535.764 157.025 531.031 164.794 524.857 172.409C514.567 185.169 501.55 195.664 485.806 203.896C470.165 212.025 453.084 216.09 434.562 216.09C432.71 216.09 429.828 215.987 425.918 215.781ZM483.028 164.383C484.674 166.029 486.886 166.852 489.665 166.852C492.752 166.852 496.302 165.823 500.315 163.765C504.328 161.707 508.238 158.981 512.046 155.585C517.705 147.559 522.233 139.995 525.628 132.895C529.024 125.795 530.722 120.033 530.722 115.608C530.722 112.212 529.59 109.846 527.326 108.508C525.886 107.685 524.291 107.273 522.541 107.273C517.705 107.273 512.148 110 505.872 115.454C499.595 120.908 494.089 127.39 489.356 134.902C486.681 139.121 484.571 143.237 483.028 147.25C481.484 151.16 480.712 154.607 480.712 157.591C480.712 160.37 481.484 162.633 483.028 164.383Z"/>
<path d="M513.91 215.781C513.292 215.678 512.778 215.421 512.366 215.01C511.955 214.495 511.749 213.981 511.749 213.466C511.749 213.054 511.955 212.694 512.366 212.386C512.675 212.077 513.138 211.923 513.755 211.923C527.338 211.717 541.024 207.601 554.813 199.575C568.601 191.445 580.898 180.538 591.702 166.852L595.252 162.222C583.213 171.174 573.386 175.65 565.771 175.65C562.479 175.65 559.494 174.827 556.819 173.181C550.542 169.271 547.404 163.56 547.404 156.048C547.404 151.932 548.33 147.61 550.182 143.082C552.034 138.555 554.607 134.027 557.899 129.5C564.073 121.268 571.585 114.373 580.435 108.817C589.284 103.157 597.825 100.328 606.057 100.328C609.967 100.328 613.568 100.996 616.861 102.334C622.006 104.392 625.813 107.531 628.283 111.749C630.856 115.968 632.142 121.01 632.142 126.876C632.142 133.667 630.444 141.076 627.048 149.102C623.755 157.025 619.022 164.794 612.848 172.409C602.558 185.169 589.541 195.664 573.798 203.896C558.157 212.025 541.075 216.09 522.553 216.09C520.701 216.09 517.82 215.987 513.91 215.781ZM571.019 164.383C572.666 166.029 574.878 166.852 577.656 166.852C580.743 166.852 584.293 165.823 588.306 163.765C592.32 161.707 596.23 158.981 600.037 155.585C605.697 147.559 610.224 139.995 613.62 132.895C617.016 125.795 618.713 120.033 618.713 115.608C618.713 112.212 617.581 109.846 615.318 108.508C613.877 107.685 612.282 107.273 610.533 107.273C605.697 107.273 600.14 110 593.863 115.454C587.586 120.908 582.081 127.39 577.348 134.902C574.672 139.121 572.563 143.237 571.019 147.25C569.476 151.16 568.704 154.607 568.704 157.591C568.704 160.37 569.476 162.633 571.019 164.383Z"/>
</mask>
<path d="M82.6872 217.479C80.1147 216.141 78.2111 214.289 76.9763 211.923C75.6386 209.453 74.9697 206.726 74.9697 203.742C74.9697 199.317 76.3074 194.996 78.9828 190.777C81.6582 186.455 85.1054 183.368 89.3243 181.516C90.5591 181.104 91.2794 180.898 91.4852 180.898C91.9997 180.898 92.3084 181.053 92.4113 181.361C92.6171 181.67 92.6171 182.082 92.4113 182.596C90.3533 186.712 89.3243 190.211 89.3243 193.092C89.3243 196.076 90.6105 197.98 93.183 198.803C94.0062 199.009 94.6236 199.112 95.0352 199.112C98.8425 199.112 101.827 196.127 103.988 190.159C106.251 184.088 107.383 176.885 107.383 168.55C107.383 164.743 108.721 161.604 111.396 159.135C114.072 156.665 116.901 155.43 119.886 155.43C121.635 155.43 122.973 155.842 123.899 156.665C125.545 158.003 126.368 159.855 126.368 162.222C126.368 164.486 125.648 166.852 124.207 169.322C122.767 171.689 120.863 173.747 118.496 175.496C118.188 175.805 117.93 175.753 117.725 175.342C117.416 174.518 117.056 173.387 116.644 171.946C116.233 170.505 115.77 169.476 115.255 168.859C114.843 168.139 114.329 167.984 113.712 168.396C112.785 169.013 112.322 170.094 112.322 171.637C112.322 172.358 112.631 174.261 113.249 177.348C114.38 182.082 114.946 185.889 114.946 188.77C114.946 192.166 114.38 195.51 113.249 198.803C114.895 199.009 117.159 197.774 120.04 195.098C122.921 192.32 126.574 188.204 130.999 182.75C131.307 182.442 131.616 182.287 131.925 182.287C132.439 182.287 132.851 182.493 133.16 182.905C133.468 183.316 133.417 183.779 133.005 184.294C124.259 196.745 116.644 205.8 110.162 211.46C103.782 217.119 97.7621 219.949 92.1026 219.949C89.1185 219.949 86.0829 219.177 82.9959 217.634L82.6872 217.479Z" fill="#FDB800"/>
<path d="M121.858 218.251C118.771 216.605 117.228 213.826 117.228 209.916C117.228 204.668 119.852 197.877 125.1 189.542L130.039 181.361C135.184 173.026 139.351 166.595 142.541 162.068C145.011 158.775 147.738 157.128 150.722 157.128C152.471 157.128 154.066 157.591 155.507 158.517C157.05 159.341 158.182 160.318 158.902 161.45C159.623 162.582 159.726 163.508 159.211 164.228C156.947 167.521 155.249 169.888 154.118 171.329C149.59 177.811 146.349 182.648 144.393 185.837C142.438 188.924 141.461 191.394 141.461 193.246C141.461 194.378 141.821 195.253 142.541 195.87C143.056 196.282 143.725 196.488 144.548 196.488C147.944 196.488 153.037 192.063 159.828 183.213C160.137 182.699 160.549 182.442 161.063 182.442C161.475 182.442 161.784 182.648 161.989 183.059C162.195 183.368 162.144 183.728 161.835 184.14C155.455 194.018 148.921 202.353 142.233 209.144C135.544 215.833 129.936 219.177 125.408 219.177C124.174 219.177 122.99 218.868 121.858 218.251ZM152.728 138.298C153.654 136.137 155.044 134.49 156.896 133.358C158.748 132.124 160.755 131.506 162.915 131.506C164.562 131.506 165.951 131.763 167.083 132.278C169.038 133.204 170.53 134.593 171.559 136.445C172.691 138.195 173.257 140.15 173.257 142.311C173.257 143.854 172.948 145.398 172.331 146.941C171.302 149.102 169.707 150.903 167.546 152.343C165.385 153.681 163.121 154.35 160.755 154.35C157.77 154.35 155.455 153.372 153.809 151.417C152.265 149.462 151.494 147.096 151.494 144.317C151.494 142.259 151.905 140.253 152.728 138.298Z" fill="#FDB800"/>
<path d="M149.855 217.479C146.459 215.936 144.761 213.466 144.761 210.07C144.761 207.807 145.482 205.183 146.922 202.199C148.26 199.214 150.215 195.561 152.787 191.24C160.505 178.583 167.502 168.087 173.779 159.752C175.734 156.974 178.461 155.585 181.96 155.585C183.812 155.585 185.561 155.945 187.207 156.665C188.854 157.386 190.089 158.26 190.912 159.289C191.735 160.215 191.889 161.039 191.375 161.759C188.185 165.772 184.223 170.711 179.49 176.576C174.859 182.236 171.567 186.403 169.612 189.079C167.759 191.754 166.833 193.709 166.833 194.944C166.833 195.561 167.039 195.922 167.451 196.025C168.377 196.539 169.817 195.716 171.772 193.555C173.83 191.394 176.763 187.895 180.57 183.059C187.156 174.724 192.816 168.242 197.549 163.611C202.282 158.878 206.707 156.511 210.823 156.511C211.646 156.511 212.521 156.665 213.447 156.974C216.019 157.797 217.306 159.649 217.306 162.531C217.306 164.794 216.585 167.47 215.145 170.557C213.704 173.644 211.492 177.76 208.508 182.905C206.347 186.506 204.7 189.439 203.569 191.703C202.437 193.967 201.871 195.767 201.871 197.105C201.871 197.928 202.128 198.494 202.642 198.803C203.157 199.214 203.774 199.42 204.495 199.42C206.347 199.42 208.353 198.134 210.514 195.561C212.778 192.989 215.968 188.822 220.084 183.059C220.599 182.442 221.113 182.133 221.628 182.133C222.142 182.133 222.502 182.339 222.708 182.75C223.017 183.162 222.965 183.625 222.554 184.14C216.688 193.298 210.669 201.17 204.495 207.755C198.321 214.238 192.713 217.479 187.671 217.479C186.024 217.479 184.481 217.068 183.04 216.244C180.056 214.495 178.564 212.025 178.564 208.836C178.564 205.646 179.747 202.044 182.114 198.031C184.584 193.915 187.928 189.13 192.147 183.677C194.719 180.384 196.571 177.811 197.703 175.959C198.938 174.107 199.555 172.666 199.555 171.637C199.555 171.02 199.298 170.608 198.784 170.402C197.652 169.888 196.005 170.968 193.845 173.644C191.787 176.216 188.802 180.487 184.892 186.455C178.101 196.436 172.236 204.257 167.296 209.916C162.46 215.473 157.778 218.251 153.25 218.251C152.221 218.251 151.09 217.994 149.855 217.479Z" fill="#FDB800"/>
<path d="M218.385 217.17C213.24 214.495 210.667 210.173 210.667 204.205C210.667 200.295 211.748 196.025 213.909 191.394C215.967 186.661 218.848 182.03 222.552 177.503C227.697 171.123 233.408 165.823 239.685 161.604C245.962 157.283 251.725 155.122 256.972 155.122C259.648 155.122 262.015 155.791 264.073 157.128C267.571 159.289 269.32 162.222 269.32 165.926C269.32 168.705 268.343 171.329 266.388 173.798C264.844 175.856 262.786 177.503 260.214 178.737C257.744 179.972 255.069 180.59 252.188 180.59C250.027 180.59 248.123 180.332 246.477 179.818C246.271 179.715 246.117 179.509 246.014 179.2C246.014 178.892 246.117 178.686 246.322 178.583C249.718 176.422 252.702 173.798 255.275 170.711C257.847 167.521 259.133 165 259.133 163.148C259.133 162.222 258.773 161.553 258.053 161.141C257.641 160.833 257.127 160.678 256.509 160.678C254.04 160.678 250.953 162.479 247.248 166.081C243.544 169.682 240.354 173.85 237.679 178.583C235.003 183.419 233.666 187.741 233.666 191.548C233.666 194.841 234.849 197.362 237.216 199.112C238.348 199.935 239.737 200.346 241.383 200.346C244.573 200.346 248.329 198.803 252.651 195.716C256.972 192.526 261.191 188.461 265.307 183.522C265.719 183.111 266.079 182.905 266.388 182.905C266.799 182.905 267.005 183.111 267.005 183.522C267.108 183.934 267.057 184.294 266.851 184.603C260.677 194.584 253.731 202.764 246.014 209.144C238.296 215.524 231.299 218.714 225.022 218.714C222.552 218.714 220.34 218.199 218.385 217.17Z" fill="#FDB800"/>
<path d="M263.812 217.17C258.667 214.495 256.095 210.173 256.095 204.205C256.095 200.295 257.175 196.025 259.336 191.394C261.394 186.661 264.275 182.03 267.98 177.503C273.125 171.123 278.836 165.823 285.112 161.604C291.389 157.283 297.152 155.122 302.4 155.122C305.075 155.122 307.442 155.791 309.5 157.128C313.101 159.392 314.902 162.273 314.902 165.772C314.902 168.447 313.873 171.123 311.815 173.798C306.876 180.487 297.306 183.831 283.106 183.831L282.025 186.455C280.894 189.336 280.328 191.909 280.328 194.172C280.328 196.436 280.996 198.083 282.334 199.112C283.569 200.038 284.958 200.501 286.502 200.501C289.794 200.501 293.602 198.906 297.923 195.716C302.348 192.526 306.619 188.461 310.735 183.522C311.146 183.111 311.506 182.905 311.815 182.905C312.227 182.905 312.432 183.111 312.432 183.522C312.535 183.934 312.484 184.294 312.278 184.603C306.104 194.584 299.158 202.764 291.441 209.144C283.723 215.524 276.726 218.714 270.449 218.714C267.98 218.714 265.767 218.199 263.812 217.17ZM284.958 180.281C287.839 179.458 290.772 177.966 293.756 175.805C296.843 173.644 299.364 171.38 301.319 169.013C303.377 166.544 304.406 164.537 304.406 162.994C304.406 162.17 304.097 161.553 303.48 161.141C302.451 160.318 300.805 160.781 298.541 162.531C296.38 164.177 294.013 166.647 291.441 169.939C288.971 173.232 286.81 176.679 284.958 180.281Z" fill="#FDB800"/>
<path d="M351.758 125.95C348.98 128.111 345.944 129.86 342.651 131.198C339.358 132.432 336.271 133.05 333.39 133.05C329.48 133.05 326.599 131.918 324.747 129.654C323.306 127.905 322.586 125.95 322.586 123.789C322.586 121.628 323.255 119.518 324.592 117.46C326.033 115.402 327.731 113.859 329.686 112.83C331.744 115.197 333.647 116.946 335.397 118.078C337.146 119.107 339.564 119.621 342.651 119.621C344.092 119.621 345.79 119.467 347.745 119.158C360.196 116.894 371.669 111.801 382.165 103.878C383.194 103.157 384.12 102.797 384.943 102.797C386.178 102.797 387.104 103.672 387.721 105.421L317.029 212.231C315.897 213.775 314.096 214.958 311.627 215.781C309.157 216.502 306.379 216.862 303.292 216.862C299.793 216.862 296.861 216.45 294.494 215.627C292.127 214.804 291.304 213.826 292.024 212.694L351.758 125.95Z" fill="#FDB800"/>
<path d="M337.927 215.781C337.309 215.678 336.795 215.421 336.383 215.01C335.972 214.495 335.766 213.981 335.766 213.466C335.766 213.054 335.972 212.694 336.383 212.386C336.692 212.077 337.155 211.923 337.772 211.923C351.355 211.717 365.041 207.601 378.829 199.575C392.618 191.445 404.915 180.538 415.719 166.852L419.269 162.222C407.23 171.174 397.403 175.65 389.788 175.65C386.495 175.65 383.511 174.827 380.836 173.181C374.559 169.271 371.421 163.56 371.421 156.048C371.421 151.932 372.347 147.61 374.199 143.082C376.051 138.555 378.624 134.027 381.916 129.5C388.09 121.268 395.602 114.373 404.452 108.817C413.301 103.157 421.842 100.328 430.074 100.328C433.984 100.328 437.585 100.996 440.878 102.334C446.023 104.392 449.83 107.531 452.3 111.749C454.873 115.968 456.159 121.01 456.159 126.876C456.159 133.667 454.461 141.076 451.065 149.102C447.772 157.025 443.039 164.794 436.865 172.409C426.575 185.169 413.558 195.664 397.814 203.896C382.174 212.025 365.092 216.09 346.57 216.09C344.718 216.09 341.837 215.987 337.927 215.781ZM395.036 164.383C396.683 166.029 398.895 166.852 401.673 166.852C404.76 166.852 408.31 165.823 412.323 163.765C416.336 161.707 420.247 158.981 424.054 155.585C429.713 147.559 434.241 139.995 437.637 132.895C441.032 125.795 442.73 120.033 442.73 115.608C442.73 112.212 441.598 109.846 439.335 108.508C437.894 107.685 436.299 107.273 434.55 107.273C429.713 107.273 424.157 110 417.88 115.454C411.603 120.908 406.098 127.39 401.364 134.902C398.689 139.121 396.58 143.237 395.036 147.25C393.493 151.16 392.721 154.607 392.721 157.591C392.721 160.37 393.493 162.633 395.036 164.383Z" fill="#FDB800"/>
<path d="M425.918 215.781C425.301 215.678 424.786 215.421 424.375 215.01C423.963 214.495 423.757 213.981 423.757 213.466C423.757 213.054 423.963 212.694 424.375 212.386C424.683 212.077 425.146 211.923 425.764 211.923C439.347 211.717 453.032 207.601 466.821 199.575C480.61 191.445 492.906 180.538 503.711 166.852L507.261 162.222C495.221 171.174 485.394 175.65 477.78 175.65C474.487 175.65 471.503 174.827 468.828 173.181C462.551 169.271 459.412 163.56 459.412 156.048C459.412 151.932 460.338 147.61 462.19 143.082C464.043 138.555 466.615 134.027 469.908 129.5C476.082 121.268 483.594 114.373 492.443 108.817C501.292 103.157 509.833 100.328 518.065 100.328C521.975 100.328 525.577 100.996 528.87 102.334C534.015 104.392 537.822 107.531 540.292 111.749C542.864 115.968 544.15 121.01 544.15 126.876C544.15 133.667 542.452 141.076 539.057 149.102C535.764 157.025 531.031 164.794 524.857 172.409C514.567 185.169 501.55 195.664 485.806 203.896C470.165 212.025 453.084 216.09 434.562 216.09C432.71 216.09 429.828 215.987 425.918 215.781ZM483.028 164.383C484.674 166.029 486.886 166.852 489.665 166.852C492.752 166.852 496.302 165.823 500.315 163.765C504.328 161.707 508.238 158.981 512.046 155.585C517.705 147.559 522.233 139.995 525.628 132.895C529.024 125.795 530.722 120.033 530.722 115.608C530.722 112.212 529.59 109.846 527.326 108.508C525.886 107.685 524.291 107.273 522.541 107.273C517.705 107.273 512.148 110 505.872 115.454C499.595 120.908 494.089 127.39 489.356 134.902C486.681 139.121 484.571 143.237 483.028 147.25C481.484 151.16 480.712 154.607 480.712 157.591C480.712 160.37 481.484 162.633 483.028 164.383Z" fill="#FDB800"/>
<path d="M513.91 215.781C513.292 215.678 512.778 215.421 512.366 215.01C511.955 214.495 511.749 213.981 511.749 213.466C511.749 213.054 511.955 212.694 512.366 212.386C512.675 212.077 513.138 211.923 513.755 211.923C527.338 211.717 541.024 207.601 554.813 199.575C568.601 191.445 580.898 180.538 591.702 166.852L595.252 162.222C583.213 171.174 573.386 175.65 565.771 175.65C562.479 175.65 559.494 174.827 556.819 173.181C550.542 169.271 547.404 163.56 547.404 156.048C547.404 151.932 548.33 147.61 550.182 143.082C552.034 138.555 554.607 134.027 557.899 129.5C564.073 121.268 571.585 114.373 580.435 108.817C589.284 103.157 597.825 100.328 606.057 100.328C609.967 100.328 613.568 100.996 616.861 102.334C622.006 104.392 625.813 107.531 628.283 111.749C630.856 115.968 632.142 121.01 632.142 126.876C632.142 133.667 630.444 141.076 627.048 149.102C623.755 157.025 619.022 164.794 612.848 172.409C602.558 185.169 589.541 195.664 573.798 203.896C558.157 212.025 541.075 216.09 522.553 216.09C520.701 216.09 517.82 215.987 513.91 215.781ZM571.019 164.383C572.666 166.029 574.878 166.852 577.656 166.852C580.743 166.852 584.293 165.823 588.306 163.765C592.32 161.707 596.23 158.981 600.037 155.585C605.697 147.559 610.224 139.995 613.62 132.895C617.016 125.795 618.713 120.033 618.713 115.608C618.713 112.212 617.581 109.846 615.318 108.508C613.877 107.685 612.282 107.273 610.533 107.273C605.697 107.273 600.14 110 593.863 115.454C587.586 120.908 582.081 127.39 577.348 134.902C574.672 139.121 572.563 143.237 571.019 147.25C569.476 151.16 568.704 154.607 568.704 157.591C568.704 160.37 569.476 162.633 571.019 164.383Z" fill="#FDB800"/>
<path d="M82.6872 217.479C80.1147 216.141 78.2111 214.289 76.9763 211.923C75.6386 209.453 74.9697 206.726 74.9697 203.742C74.9697 199.317 76.3074 194.996 78.9828 190.777C81.6582 186.455 85.1054 183.368 89.3243 181.516C90.5591 181.104 91.2794 180.898 91.4852 180.898C91.9997 180.898 92.3084 181.053 92.4113 181.361C92.6171 181.67 92.6171 182.082 92.4113 182.596C90.3533 186.712 89.3243 190.211 89.3243 193.092C89.3243 196.076 90.6105 197.98 93.183 198.803C94.0062 199.009 94.6236 199.112 95.0352 199.112C98.8425 199.112 101.827 196.127 103.988 190.159C106.251 184.088 107.383 176.885 107.383 168.55C107.383 164.743 108.721 161.604 111.396 159.135C114.072 156.665 116.901 155.43 119.886 155.43C121.635 155.43 122.973 155.842 123.899 156.665C125.545 158.003 126.368 159.855 126.368 162.222C126.368 164.486 125.648 166.852 124.207 169.322C122.767 171.689 120.863 173.747 118.496 175.496C118.188 175.805 117.93 175.753 117.725 175.342C117.416 174.518 117.056 173.387 116.644 171.946C116.233 170.505 115.77 169.476 115.255 168.859C114.843 168.139 114.329 167.984 113.712 168.396C112.785 169.013 112.322 170.094 112.322 171.637C112.322 172.358 112.631 174.261 113.249 177.348C114.38 182.082 114.946 185.889 114.946 188.77C114.946 192.166 114.38 195.51 113.249 198.803C114.895 199.009 117.159 197.774 120.04 195.098C122.921 192.32 126.574 188.204 130.999 182.75C131.307 182.442 131.616 182.287 131.925 182.287C132.439 182.287 132.851 182.493 133.16 182.905C133.468 183.316 133.417 183.779 133.005 184.294C124.259 196.745 116.644 205.8 110.162 211.46C103.782 217.119 97.7621 219.949 92.1026 219.949C89.1185 219.949 86.0829 219.177 82.9959 217.634L82.6872 217.479Z" stroke="#FFE8CC" stroke-width="8" mask="url(#path-2-outside-1_1624_3)"/>
<path d="M121.858 218.251C118.771 216.605 117.228 213.826 117.228 209.916C117.228 204.668 119.852 197.877 125.1 189.542L130.039 181.361C135.184 173.026 139.351 166.595 142.541 162.068C145.011 158.775 147.738 157.128 150.722 157.128C152.471 157.128 154.066 157.591 155.507 158.517C157.05 159.341 158.182 160.318 158.902 161.45C159.623 162.582 159.726 163.508 159.211 164.228C156.947 167.521 155.249 169.888 154.118 171.329C149.59 177.811 146.349 182.648 144.393 185.837C142.438 188.924 141.461 191.394 141.461 193.246C141.461 194.378 141.821 195.253 142.541 195.87C143.056 196.282 143.725 196.488 144.548 196.488C147.944 196.488 153.037 192.063 159.828 183.213C160.137 182.699 160.549 182.442 161.063 182.442C161.475 182.442 161.784 182.648 161.989 183.059C162.195 183.368 162.144 183.728 161.835 184.14C155.455 194.018 148.921 202.353 142.233 209.144C135.544 215.833 129.936 219.177 125.408 219.177C124.174 219.177 122.99 218.868 121.858 218.251ZM152.728 138.298C153.654 136.137 155.044 134.49 156.896 133.358C158.748 132.124 160.755 131.506 162.915 131.506C164.562 131.506 165.951 131.763 167.083 132.278C169.038 133.204 170.53 134.593 171.559 136.445C172.691 138.195 173.257 140.15 173.257 142.311C173.257 143.854 172.948 145.398 172.331 146.941C171.302 149.102 169.707 150.903 167.546 152.343C165.385 153.681 163.121 154.35 160.755 154.35C157.77 154.35 155.455 153.372 153.809 151.417C152.265 149.462 151.494 147.096 151.494 144.317C151.494 142.259 151.905 140.253 152.728 138.298Z" stroke="#FFE8CC" stroke-width="8" mask="url(#path-2-outside-1_1624_3)"/>
<path d="M149.855 217.479C146.459 215.936 144.761 213.466 144.761 210.07C144.761 207.807 145.482 205.183 146.922 202.199C148.26 199.214 150.215 195.561 152.787 191.24C160.505 178.583 167.502 168.087 173.779 159.752C175.734 156.974 178.461 155.585 181.96 155.585C183.812 155.585 185.561 155.945 187.207 156.665C188.854 157.386 190.089 158.26 190.912 159.289C191.735 160.215 191.889 161.039 191.375 161.759C188.185 165.772 184.223 170.711 179.49 176.576C174.859 182.236 171.567 186.403 169.612 189.079C167.759 191.754 166.833 193.709 166.833 194.944C166.833 195.561 167.039 195.922 167.451 196.025C168.377 196.539 169.817 195.716 171.772 193.555C173.83 191.394 176.763 187.895 180.57 183.059C187.156 174.724 192.816 168.242 197.549 163.611C202.282 158.878 206.707 156.511 210.823 156.511C211.646 156.511 212.521 156.665 213.447 156.974C216.019 157.797 217.306 159.649 217.306 162.531C217.306 164.794 216.585 167.47 215.145 170.557C213.704 173.644 211.492 177.76 208.508 182.905C206.347 186.506 204.7 189.439 203.569 191.703C202.437 193.967 201.871 195.767 201.871 197.105C201.871 197.928 202.128 198.494 202.642 198.803C203.157 199.214 203.774 199.42 204.495 199.42C206.347 199.42 208.353 198.134 210.514 195.561C212.778 192.989 215.968 188.822 220.084 183.059C220.599 182.442 221.113 182.133 221.628 182.133C222.142 182.133 222.502 182.339 222.708 182.75C223.017 183.162 222.965 183.625 222.554 184.14C216.688 193.298 210.669 201.17 204.495 207.755C198.321 214.238 192.713 217.479 187.671 217.479C186.024 217.479 184.481 217.068 183.04 216.244C180.056 214.495 178.564 212.025 178.564 208.836C178.564 205.646 179.747 202.044 182.114 198.031C184.584 193.915 187.928 189.13 192.147 183.677C194.719 180.384 196.571 177.811 197.703 175.959C198.938 174.107 199.555 172.666 199.555 171.637C199.555 171.02 199.298 170.608 198.784 170.402C197.652 169.888 196.005 170.968 193.845 173.644C191.787 176.216 188.802 180.487 184.892 186.455C178.101 196.436 172.236 204.257 167.296 209.916C162.46 215.473 157.778 218.251 153.25 218.251C152.221 218.251 151.09 217.994 149.855 217.479Z" stroke="#FFE8CC" stroke-width="8" mask="url(#path-2-outside-1_1624_3)"/>
<path d="M218.385 217.17C213.24 214.495 210.667 210.173 210.667 204.205C210.667 200.295 211.748 196.025 213.909 191.394C215.967 186.661 218.848 182.03 222.552 177.503C227.697 171.123 233.408 165.823 239.685 161.604C245.962 157.283 251.725 155.122 256.972 155.122C259.648 155.122 262.015 155.791 264.073 157.128C267.571 159.289 269.32 162.222 269.32 165.926C269.32 168.705 268.343 171.329 266.388 173.798C264.844 175.856 262.786 177.503 260.214 178.737C257.744 179.972 255.069 180.59 252.188 180.59C250.027 180.59 248.123 180.332 246.477 179.818C246.271 179.715 246.117 179.509 246.014 179.2C246.014 178.892 246.117 178.686 246.322 178.583C249.718 176.422 252.702 173.798 255.275 170.711C257.847 167.521 259.133 165 259.133 163.148C259.133 162.222 258.773 161.553 258.053 161.141C257.641 160.833 257.127 160.678 256.509 160.678C254.04 160.678 250.953 162.479 247.248 166.081C243.544 169.682 240.354 173.85 237.679 178.583C235.003 183.419 233.666 187.741 233.666 191.548C233.666 194.841 234.849 197.362 237.216 199.112C238.348 199.935 239.737 200.346 241.383 200.346C244.573 200.346 248.329 198.803 252.651 195.716C256.972 192.526 261.191 188.461 265.307 183.522C265.719 183.111 266.079 182.905 266.388 182.905C266.799 182.905 267.005 183.111 267.005 183.522C267.108 183.934 267.057 184.294 266.851 184.603C260.677 194.584 253.731 202.764 246.014 209.144C238.296 215.524 231.299 218.714 225.022 218.714C222.552 218.714 220.34 218.199 218.385 217.17Z" stroke="#FFE8CC" stroke-width="8" mask="url(#path-2-outside-1_1624_3)"/>
<path d="M263.812 217.17C258.667 214.495 256.095 210.173 256.095 204.205C256.095 200.295 257.175 196.025 259.336 191.394C261.394 186.661 264.275 182.03 267.98 177.503C273.125 171.123 278.836 165.823 285.112 161.604C291.389 157.283 297.152 155.122 302.4 155.122C305.075 155.122 307.442 155.791 309.5 157.128C313.101 159.392 314.902 162.273 314.902 165.772C314.902 168.447 313.873 171.123 311.815 173.798C306.876 180.487 297.306 183.831 283.106 183.831L282.025 186.455C280.894 189.336 280.328 191.909 280.328 194.172C280.328 196.436 280.996 198.083 282.334 199.112C283.569 200.038 284.958 200.501 286.502 200.501C289.794 200.501 293.602 198.906 297.923 195.716C302.348 192.526 306.619 188.461 310.735 183.522C311.146 183.111 311.506 182.905 311.815 182.905C312.227 182.905 312.432 183.111 312.432 183.522C312.535 183.934 312.484 184.294 312.278 184.603C306.104 194.584 299.158 202.764 291.441 209.144C283.723 215.524 276.726 218.714 270.449 218.714C267.98 218.714 265.767 218.199 263.812 217.17ZM284.958 180.281C287.839 179.458 290.772 177.966 293.756 175.805C296.843 173.644 299.364 171.38 301.319 169.013C303.377 166.544 304.406 164.537 304.406 162.994C304.406 162.17 304.097 161.553 303.48 161.141C302.451 160.318 300.805 160.781 298.541 162.531C296.38 164.177 294.013 166.647 291.441 169.939C288.971 173.232 286.81 176.679 284.958 180.281Z" stroke="#FFE8CC" stroke-width="8" mask="url(#path-2-outside-1_1624_3)"/>
<path d="M351.758 125.95C348.98 128.111 345.944 129.86 342.651 131.198C339.358 132.432 336.271 133.05 333.39 133.05C329.48 133.05 326.599 131.918 324.747 129.654C323.306 127.905 322.586 125.95 322.586 123.789C322.586 121.628 323.255 119.518 324.592 117.46C326.033 115.402 327.731 113.859 329.686 112.83C331.744 115.197 333.647 116.946 335.397 118.078C337.146 119.107 339.564 119.621 342.651 119.621C344.092 119.621 345.79 119.467 347.745 119.158C360.196 116.894 371.669 111.801 382.165 103.878C383.194 103.157 384.12 102.797 384.943 102.797C386.178 102.797 387.104 103.672 387.721 105.421L317.029 212.231C315.897 213.775 314.096 214.958 311.627 215.781C309.157 216.502 306.379 216.862 303.292 216.862C299.793 216.862 296.861 216.45 294.494 215.627C292.127 214.804 291.304 213.826 292.024 212.694L351.758 125.95Z" stroke="#FFE8CC" stroke-width="8" mask="url(#path-2-outside-1_1624_3)"/>
<path d="M337.927 215.781C337.309 215.678 336.795 215.421 336.383 215.01C335.972 214.495 335.766 213.981 335.766 213.466C335.766 213.054 335.972 212.694 336.383 212.386C336.692 212.077 337.155 211.923 337.772 211.923C351.355 211.717 365.041 207.601 378.829 199.575C392.618 191.445 404.915 180.538 415.719 166.852L419.269 162.222C407.23 171.174 397.403 175.65 389.788 175.65C386.495 175.65 383.511 174.827 380.836 173.181C374.559 169.271 371.421 163.56 371.421 156.048C371.421 151.932 372.347 147.61 374.199 143.082C376.051 138.555 378.624 134.027 381.916 129.5C388.09 121.268 395.602 114.373 404.452 108.817C413.301 103.157 421.842 100.328 430.074 100.328C433.984 100.328 437.585 100.996 440.878 102.334C446.023 104.392 449.83 107.531 452.3 111.749C454.873 115.968 456.159 121.01 456.159 126.876C456.159 133.667 454.461 141.076 451.065 149.102C447.772 157.025 443.039 164.794 436.865 172.409C426.575 185.169 413.558 195.664 397.814 203.896C382.174 212.025 365.092 216.09 346.57 216.09C344.718 216.09 341.837 215.987 337.927 215.781ZM395.036 164.383C396.683 166.029 398.895 166.852 401.673 166.852C404.76 166.852 408.31 165.823 412.323 163.765C416.336 161.707 420.247 158.981 424.054 155.585C429.713 147.559 434.241 139.995 437.637 132.895C441.032 125.795 442.73 120.033 442.73 115.608C442.73 112.212 441.598 109.846 439.335 108.508C437.894 107.685 436.299 107.273 434.55 107.273C429.713 107.273 424.157 110 417.88 115.454C411.603 120.908 406.098 127.39 401.364 134.902C398.689 139.121 396.58 143.237 395.036 147.25C393.493 151.16 392.721 154.607 392.721 157.591C392.721 160.37 393.493 162.633 395.036 164.383Z" stroke="#FFE8CC" stroke-width="8" mask="url(#path-2-outside-1_1624_3)"/>
<path d="M425.918 215.781C425.301 215.678 424.786 215.421 424.375 215.01C423.963 214.495 423.757 213.981 423.757 213.466C423.757 213.054 423.963 212.694 424.375 212.386C424.683 212.077 425.146 211.923 425.764 211.923C439.347 211.717 453.032 207.601 466.821 199.575C480.61 191.445 492.906 180.538 503.711 166.852L507.261 162.222C495.221 171.174 485.394 175.65 477.78 175.65C474.487 175.65 471.503 174.827 468.828 173.181C462.551 169.271 459.412 163.56 459.412 156.048C459.412 151.932 460.338 147.61 462.19 143.082C464.043 138.555 466.615 134.027 469.908 129.5C476.082 121.268 483.594 114.373 492.443 108.817C501.292 103.157 509.833 100.328 518.065 100.328C521.975 100.328 525.577 100.996 528.87 102.334C534.015 104.392 537.822 107.531 540.292 111.749C542.864 115.968 544.15 121.01 544.15 126.876C544.15 133.667 542.452 141.076 539.057 149.102C535.764 157.025 531.031 164.794 524.857 172.409C514.567 185.169 501.55 195.664 485.806 203.896C470.165 212.025 453.084 216.09 434.562 216.09C432.71 216.09 429.828 215.987 425.918 215.781ZM483.028 164.383C484.674 166.029 486.886 166.852 489.665 166.852C492.752 166.852 496.302 165.823 500.315 163.765C504.328 161.707 508.238 158.981 512.046 155.585C517.705 147.559 522.233 139.995 525.628 132.895C529.024 125.795 530.722 120.033 530.722 115.608C530.722 112.212 529.59 109.846 527.326 108.508C525.886 107.685 524.291 107.273 522.541 107.273C517.705 107.273 512.148 110 505.872 115.454C499.595 120.908 494.089 127.39 489.356 134.902C486.681 139.121 484.571 143.237 483.028 147.25C481.484 151.16 480.712 154.607 480.712 157.591C480.712 160.37 481.484 162.633 483.028 164.383Z" stroke="#FFE8CC" stroke-width="8" mask="url(#path-2-outside-1_1624_3)"/>
<path d="M513.91 215.781C513.292 215.678 512.778 215.421 512.366 215.01C511.955 214.495 511.749 213.981 511.749 213.466C511.749 213.054 511.955 212.694 512.366 212.386C512.675 212.077 513.138 211.923 513.755 211.923C527.338 211.717 541.024 207.601 554.813 199.575C568.601 191.445 580.898 180.538 591.702 166.852L595.252 162.222C583.213 171.174 573.386 175.65 565.771 175.65C562.479 175.65 559.494 174.827 556.819 173.181C550.542 169.271 547.404 163.56 547.404 156.048C547.404 151.932 548.33 147.61 550.182 143.082C552.034 138.555 554.607 134.027 557.899 129.5C564.073 121.268 571.585 114.373 580.435 108.817C589.284 103.157 597.825 100.328 606.057 100.328C609.967 100.328 613.568 100.996 616.861 102.334C622.006 104.392 625.813 107.531 628.283 111.749C630.856 115.968 632.142 121.01 632.142 126.876C632.142 133.667 630.444 141.076 627.048 149.102C623.755 157.025 619.022 164.794 612.848 172.409C602.558 185.169 589.541 195.664 573.798 203.896C558.157 212.025 541.075 216.09 522.553 216.09C520.701 216.09 517.82 215.987 513.91 215.781ZM571.019 164.383C572.666 166.029 574.878 166.852 577.656 166.852C580.743 166.852 584.293 165.823 588.306 163.765C592.32 161.707 596.23 158.981 600.037 155.585C605.697 147.559 610.224 139.995 613.62 132.895C617.016 125.795 618.713 120.033 618.713 115.608C618.713 112.212 617.581 109.846 615.318 108.508C613.877 107.685 612.282 107.273 610.533 107.273C605.697 107.273 600.14 110 593.863 115.454C587.586 120.908 582.081 127.39 577.348 134.902C574.672 139.121 572.563 143.237 571.019 147.25C569.476 151.16 568.704 154.607 568.704 157.591C568.704 160.37 569.476 162.633 571.019 164.383Z" stroke="#FFE8CC" stroke-width="8" mask="url(#path-2-outside-1_1624_3)"/>
</svg>
