<svg width="73" height="34" viewBox="0 0 73 34" fill="none" xmlns="http://www.w3.org/2000/svg">
<path d="M0 15.2861V0.24707H4.68359C7.01465 0.24707 8.08887 1.25684 8.08887 3.41602V4.66211C8.08887 6.20898 7.42285 6.98242 6.24121 7.31543V7.53027C7.61621 7.89551 8.36816 8.79785 8.36816 10.5596V11.9023C8.36816 14.2012 7.22949 15.2861 4.83398 15.2861H0ZM2.96484 6.4668H4.07129C4.84473 6.4668 5.17773 6.12305 5.17773 5.28516V3.75977C5.17773 2.92188 4.84473 2.55664 4.07129 2.55664H2.96484V6.4668ZM2.96484 12.9658H4.13574C4.93066 12.9658 5.2959 12.5684 5.2959 11.6338V9.8291C5.2959 8.90527 4.93066 8.51855 4.13574 8.51855H2.96484V12.9658ZM8.63672 15.2861L11.376 0.24707H15.2217L18.0254 15.2861H14.9102L14.5986 13.1377H11.8057L11.5049 15.2861H8.63672ZM12.1709 11.0322H14.2441L13.7178 7.82031C13.5459 6.24121 13.417 5.12402 13.3203 3.53418H13.0947C13.0088 5.12402 12.8799 6.24121 12.708 7.80957L12.1709 11.0322ZM18.7559 15.2861V0.24707H22.2363L24.3955 7.46582C24.6533 8.34668 24.9004 9.35645 25.1582 10.71L25.3838 10.6885C25.2227 8.76562 25.0938 6.83203 25.0938 5.27441V0.24707H27.9834V15.2861H24.5029L22.4404 8.48633C22.1074 7.22949 21.8818 6.34863 21.5703 4.69434L21.3447 4.72656C21.4951 6.42383 21.6455 8.92676 21.6455 10.6455V15.2861H18.7559ZM33.1719 15.5332C30.4863 15.5332 28.9824 14.1582 28.9824 11.0859V10.5811L31.7754 10.2158V10.8389C31.7754 12.708 32.2051 13.3203 33.2793 13.3203C33.9883 13.3203 34.4072 12.8799 34.4072 12.1602C34.4072 11.1611 33.9346 10.2695 32.6992 9.09863L31.4639 7.92773C30.207 6.74609 29.1006 5.59668 29.1113 3.62012C29.1221 1.21387 30.4863 0 33.0107 0C35.6641 0 36.9961 1.31055 36.9961 4.2002V4.6084L34.3643 4.94141V4.41504C34.3643 2.76074 33.8916 2.19141 32.9785 2.19141C32.3018 2.19141 31.915 2.57812 31.915 3.20117C31.915 3.96387 32.248 4.76953 33.5693 5.94043L34.8369 7.08984C36.0938 8.23926 37.2969 9.43164 37.2969 11.6768C37.2969 14.1582 35.8252 15.5332 33.1719 15.5332ZM40.0469 15.2861V2.66406H37.501V0.24707H45.5576V2.66406H43.0117V15.2861H40.0469ZM50.4238 15.5439C47.459 15.5439 46.0088 13.9863 46.0088 10.5488V5.0918C46.0088 1.58984 47.459 0 50.4238 0C53.3779 0 54.8281 1.58984 54.8281 5.0918V10.5488C54.8281 13.9863 53.3779 15.5439 50.4238 15.5439ZM50.4238 13.2129C51.3799 13.2129 51.8311 12.5254 51.8311 11.0859V4.54395C51.8311 3.04004 51.3799 2.32031 50.4238 2.32031C49.4678 2.32031 49.0059 3.04004 49.0059 4.54395V11.0859C49.0059 12.5254 49.4678 13.2129 50.4238 13.2129ZM55.9453 15.2861V0.24707H58.9102V12.8584H62.2939V15.2861H55.9453ZM62.7559 15.2861L65.4951 0.24707H69.3408L72.1445 15.2861H69.0293L68.7178 13.1377H65.9248L65.624 15.2861H62.7559ZM66.29 11.0322H68.3633L67.8369 7.82031C67.665 6.24121 67.5361 5.12402 67.4395 3.53418H67.2139C67.1279 5.12402 66.999 6.24121 66.8271 7.80957L66.29 11.0322ZM0.34375 33.2861V18.2471H5.02734C7.3584 18.2471 8.43262 19.2568 8.43262 21.416V22.6621C8.43262 24.209 7.7666 24.9824 6.58496 25.3154V25.5303C7.95996 25.8955 8.71191 26.7979 8.71191 28.5596V29.9023C8.71191 32.2012 7.57324 33.2861 5.17773 33.2861H0.34375ZM3.30859 24.4668H4.41504C5.18848 24.4668 5.52148 24.123 5.52148 23.2852V21.7598C5.52148 20.9219 5.18848 20.5566 4.41504 20.5566H3.30859V24.4668ZM3.30859 30.9658H4.47949C5.27441 30.9658 5.63965 30.5684 5.63965 29.6338V27.8291C5.63965 26.9053 5.27441 26.5186 4.47949 26.5186H3.30859V30.9658ZM9.625 33.2861V18.2471H14.0186C16.5107 18.2471 17.7891 19.4287 17.7891 21.6738V22.6084C17.7891 24.2412 17.0371 25.2617 15.6406 25.541V25.7129C16.7793 26.0459 17.1445 26.5615 17.3594 28.4199L17.5742 30.2783C17.7998 32.1367 17.9932 32.6846 18.3369 33.0176L18.3047 33.2861H15.1035C14.8672 32.7168 14.7598 32.0293 14.6201 30.3857L14.4805 28.7314C14.3516 27.0879 14.1045 26.7334 13.2666 26.7334H12.5898V33.2861H9.625ZM12.5898 24.4883H13.7393C14.502 24.4883 14.8457 24.123 14.8457 23.2744V21.8027C14.8457 20.9326 14.502 20.5781 13.7393 20.5781H12.5898V24.4883ZM23.1602 33.5439C20.1953 33.5439 18.7451 31.9863 18.7451 28.5488V23.0918C18.7451 19.5898 20.1953 18 23.1602 18C26.1143 18 27.5645 19.5898 27.5645 23.0918V28.5488C27.5645 31.9863 26.1143 33.5439 23.1602 33.5439ZM23.1602 31.2129C24.1162 31.2129 24.5674 30.5254 24.5674 29.0859V22.5439C24.5674 21.04 24.1162 20.3203 23.1602 20.3203C22.2041 20.3203 21.7422 21.04 21.7422 22.5439V29.0859C21.7422 30.5254 22.2041 31.2129 23.1602 31.2129ZM30.5723 33.2861V20.6641H28.0264V18.2471H36.083V20.6641H33.5371V33.2861H30.5723ZM42.2168 18.2471H45.1924V33.2861H42.2168V26.5938H39.7891V33.2861H36.8242V18.2471H39.7891V24.2197H42.2168V18.2471ZM49.457 30.8584H53.3027V33.2861H46.4922V18.2471H53.1416V20.6641H49.457V24.4023H52.8086V26.5615H49.457V30.8584ZM54.291 33.2861V18.2471H58.6846C61.1768 18.2471 62.4551 19.4287 62.4551 21.6738V22.6084C62.4551 24.2412 61.7031 25.2617 60.3066 25.541V25.7129C61.4453 26.0459 61.8105 26.5615 62.0254 28.4199L62.2402 30.2783C62.4658 32.1367 62.6592 32.6846 63.0029 33.0176L62.9707 33.2861H59.7695C59.5332 32.7168 59.4258 32.0293 59.2861 30.3857L59.1465 28.7314C59.0176 27.0879 58.7705 26.7334 57.9326 26.7334H57.2559V33.2861H54.291ZM57.2559 24.4883H58.4053C59.168 24.4883 59.5117 24.123 59.5117 23.2744V21.8027C59.5117 20.9326 59.168 20.5781 58.4053 20.5781H57.2559V24.4883ZM67.418 33.5332C64.7324 33.5332 63.2285 32.1582 63.2285 29.0859V28.5811L66.0215 28.2158V28.8389C66.0215 30.708 66.4512 31.3203 67.5254 31.3203C68.2344 31.3203 68.6533 30.8799 68.6533 30.1602C68.6533 29.1611 68.1807 28.2695 66.9453 27.0986L65.71 25.9277C64.4531 24.7461 63.3467 23.5967 63.3574 21.6201C63.3682 19.2139 64.7324 18 67.2568 18C69.9102 18 71.2422 19.3105 71.2422 22.2002V22.6084L68.6104 22.9414V22.415C68.6104 20.7607 68.1377 20.1914 67.2246 20.1914C66.5479 20.1914 66.1611 20.5781 66.1611 21.2012C66.1611 21.9639 66.4941 22.7695 67.8154 23.9404L69.083 25.0898C70.3398 26.2393 71.543 27.4316 71.543 29.6768C71.543 32.1582 70.0713 33.5332 67.418 33.5332Z" fill="#E73226"/>
</svg>
