<svg width="1300" height="208" viewBox="0 0 1300 208" fill="none" xmlns="http://www.w3.org/2000/svg">
<path d="M0 166.641V2.57812H43.4766C64.8047 2.57812 73.8281 12.4219 73.8281 34.5703V53.9062C73.8281 69.6094 67.5 76.2891 57.5391 79.8047V82.3828C68.9062 86.3672 75.9375 94.4531 75.9375 112.734V133.711C75.9375 156.445 66.2109 166.641 45 166.641H0ZM30.4688 70.6641H36.9141C42.3047 70.6641 44.4141 68.2031 44.4141 60.9375V36.0938C44.4141 28.7109 42.3047 26.0156 36.9141 26.0156H30.4688V70.6641ZM30.4688 143.203H37.2656C42.6562 143.203 44.7656 140.391 44.7656 132.656V102.656C44.7656 95.1562 42.6562 92.4609 37.2656 92.4609H30.4688V143.203Z" fill="white"/>
<path d="M77.8125 166.641L98.5547 2.57812H138.633L160.312 166.641H128.672L127.031 145.664H108.75L107.109 166.641H77.8125ZM111.094 124.922H124.57L121.758 96.7969C120.469 76.0547 119.648 63.6328 119.062 42.6562H116.602C116.133 63.6328 115.312 76.0547 114.023 96.7969L111.094 124.922Z" fill="white"/>
<path d="M165.469 166.641V2.57812H203.086L219.258 77.8125C221.484 87.8906 223.828 100.781 226.172 117.773L228.633 117.539C226.523 90.3516 224.531 60.8203 224.531 38.4375V2.57812H254.531V166.641H217.031L202.148 98.9062C198.867 82.7344 196.875 72.1875 193.711 49.8047L191.133 50.1562C193.125 72.6562 195.469 114.023 195.469 139.219V166.641H165.469Z" fill="white"/>
<path d="M299.18 169.219C275.156 169.219 261.914 156.797 261.914 130.312V116.602L290.859 112.969V130.547C290.859 142.266 293.438 146.719 299.883 146.719C304.219 146.719 306.68 143.203 306.68 136.992C306.68 125.039 302.578 113.32 291.914 97.7344L281.25 82.0312C270.703 66.4453 262.148 53.2031 262.148 36.3281C262.266 11.25 274.57 0 298.008 0C322.266 0 333.633 11.8359 333.633 36.9141V47.5781L305.859 51.0938V36.7969C305.859 26.25 303.047 22.2656 297.422 22.2656C293.203 22.2656 290.977 25.3125 290.977 30.8203C290.977 38.6719 293.789 49.4531 305.039 65.0391L316.055 80.625C327.07 96.2109 336.211 110.742 336.211 132.656C336.211 156.68 323.555 169.219 299.18 169.219Z" fill="white"/>
<path d="M358.711 166.641V27.3047H337.383V2.57812H410.508V27.3047H389.18V166.641H358.711Z" fill="white"/>
<path d="M452.695 169.336C426.68 169.336 414.023 156.68 414.023 129.141V40.7812C414.023 12.6562 426.68 0 452.695 0C478.945 0 491.602 12.6562 491.602 40.7812V129.141C491.602 156.68 478.945 169.336 452.695 169.336ZM452.812 145.664C458.32 145.664 461.016 141.68 461.016 133.477V36.5625C461.016 27.7734 458.32 23.5547 452.812 23.5547C447.305 23.5547 444.609 27.7734 444.609 36.5625V133.477C444.609 141.68 447.305 145.664 452.812 145.664Z" fill="white"/>
<path d="M499.922 166.641V2.57812H530.391V141.914H555.82V166.641H499.922Z" fill="white"/>
<path d="M560.156 166.641L580.898 2.57812H620.977L642.656 166.641H611.016L609.375 145.664H591.094L589.453 166.641H560.156ZM593.438 124.922H606.914L604.102 96.7969C602.812 76.0547 601.992 63.6328 601.406 42.6562H598.945C598.477 63.6328 597.656 76.0547 596.367 96.7969L593.438 124.922Z" fill="white"/>
<path d="M667.969 166.641V2.57812H711.445C732.773 2.57812 741.797 12.4219 741.797 34.5703V53.9062C741.797 69.6094 735.469 76.2891 725.508 79.8047V82.3828C736.875 86.3672 743.906 94.4531 743.906 112.734V133.711C743.906 156.445 734.18 166.641 712.969 166.641H667.969ZM698.438 70.6641H704.883C710.273 70.6641 712.383 68.2031 712.383 60.9375V36.0938C712.383 28.7109 710.273 26.0156 704.883 26.0156H698.438V70.6641ZM698.438 143.203H705.234C710.625 143.203 712.734 140.391 712.734 132.656V102.656C712.734 95.1562 710.625 92.4609 705.234 92.4609H698.438V143.203Z" fill="white"/>
<path d="M750.469 166.641V2.57812H790.781C813.633 2.57812 825.234 14.0625 825.234 36.2109V50.8594C825.234 66.6797 819.141 76.5234 807.422 80.0391V81.6797C818.203 84.9609 821.25 90 822.656 111.68L824.062 133.359C825.469 155.156 826.875 160.547 829.805 163.945L829.336 166.641H797.109C795.234 159.961 794.414 153.516 793.711 134.062L793.008 114.727C792.188 95.2734 790.664 92.5781 784.453 92.5781H780.938V166.641H750.469ZM780.938 69.6094H787.852C793.008 69.6094 795 67.1484 795 60.3516V35.5078C795 28.4766 793.008 26.1328 787.852 26.1328H780.938V69.6094Z" fill="white"/>
<path d="M871.758 169.336C845.742 169.336 833.086 156.68 833.086 129.141V40.7812C833.086 12.6562 845.742 0 871.758 0C898.008 0 910.664 12.6562 910.664 40.7812V129.141C910.664 156.68 898.008 169.336 871.758 169.336ZM871.875 145.664C877.383 145.664 880.078 141.68 880.078 133.477V36.5625C880.078 27.7734 877.383 23.5547 871.875 23.5547C866.367 23.5547 863.672 27.7734 863.672 36.5625V133.477C863.672 141.68 866.367 145.664 871.875 145.664Z" fill="white"/>
<path d="M935.508 166.641V27.3047H914.18V2.57812H987.305V27.3047H965.977V166.641H935.508Z" fill="white"/>
<path d="M1037.46 2.57812H1067.93V166.641H1037.46V92.6953H1022.81V166.641H992.344V2.57812H1022.81V68.7891H1037.46V2.57812Z" fill="white"/>
<path d="M1107.66 141.914H1137.66V166.641H1077.19V2.57812H1136.25V27.3047H1107.66V69.8438H1133.32V92.3438H1107.66V141.914Z" fill="white"/>
<path d="M1144.69 166.641V2.57812H1185C1207.85 2.57812 1219.45 14.0625 1219.45 36.2109V50.8594C1219.45 66.6797 1213.36 76.5234 1201.64 80.0391V81.6797C1212.42 84.9609 1215.47 90 1216.88 111.68L1218.28 133.359C1219.69 155.156 1221.09 160.547 1224.02 163.945L1223.55 166.641H1191.33C1189.45 159.961 1188.63 153.516 1187.93 134.062L1187.23 114.727C1186.41 95.2734 1184.88 92.5781 1178.67 92.5781H1175.16V166.641H1144.69ZM1175.16 69.6094H1182.07C1187.23 69.6094 1189.22 67.1484 1189.22 60.3516V35.5078C1189.22 28.4766 1187.23 26.1328 1182.07 26.1328H1175.16V69.6094Z" fill="white"/>
<path d="M1262.93 169.219C1238.91 169.219 1225.66 156.797 1225.66 130.312V116.602L1254.61 112.969V130.547C1254.61 142.266 1257.19 146.719 1263.63 146.719C1267.97 146.719 1270.43 143.203 1270.43 136.992C1270.43 125.039 1266.33 113.32 1255.66 97.7344L1245 82.0312C1234.45 66.4453 1225.9 53.2031 1225.9 36.3281C1226.02 11.25 1238.32 0 1261.76 0C1286.02 0 1297.38 11.8359 1297.38 36.9141V47.5781L1269.61 51.0938V36.7969C1269.61 26.25 1266.8 22.2656 1261.17 22.2656C1256.95 22.2656 1254.73 25.3125 1254.73 30.8203C1254.73 38.6719 1257.54 49.4531 1268.79 65.0391L1279.8 80.625C1290.82 96.2109 1299.96 110.742 1299.96 132.656C1299.96 156.68 1287.3 169.219 1262.93 169.219Z" fill="white"/>
<mask id="path-2-outside-1_1627_18" maskUnits="userSpaceOnUse" x="436.274" y="121.811" width="379" height="86" fill="black">
<rect fill="white" x="436.274" y="121.811" width="379" height="86"/>
<path d="M444.436 203.159C442.715 202.264 441.442 201.026 440.616 199.443C439.722 197.791 439.274 195.968 439.274 193.972C439.274 191.013 440.169 188.122 441.958 185.301C443.748 182.411 446.053 180.346 448.874 179.107C449.7 178.832 450.182 178.694 450.32 178.694C450.664 178.694 450.87 178.798 450.939 179.004C451.077 179.211 451.077 179.486 450.939 179.83C449.563 182.583 448.874 184.922 448.874 186.849C448.874 188.845 449.735 190.118 451.455 190.669C452.006 190.806 452.418 190.875 452.694 190.875C455.24 190.875 457.236 188.879 458.681 184.888C460.195 180.828 460.952 176.011 460.952 170.436C460.952 167.89 461.846 165.791 463.636 164.14C465.425 162.488 467.317 161.662 469.313 161.662C470.483 161.662 471.378 161.937 471.997 162.488C473.098 163.383 473.649 164.621 473.649 166.204C473.649 167.718 473.167 169.301 472.203 170.953C471.24 172.535 469.967 173.912 468.384 175.082C468.178 175.288 468.006 175.254 467.868 174.978C467.662 174.428 467.421 173.671 467.145 172.707C466.87 171.744 466.56 171.056 466.216 170.643C465.941 170.161 465.597 170.058 465.184 170.333C464.565 170.746 464.255 171.469 464.255 172.501C464.255 172.983 464.462 174.256 464.874 176.32C465.631 179.486 466.01 182.032 466.01 183.959C466.01 186.23 465.631 188.467 464.874 190.669C465.975 190.806 467.489 189.981 469.416 188.191C471.343 186.333 473.786 183.58 476.745 179.933C476.952 179.727 477.158 179.624 477.365 179.624C477.709 179.624 477.984 179.761 478.191 180.036C478.397 180.312 478.363 180.621 478.087 180.965C472.238 189.292 467.145 195.348 462.81 199.133C458.543 202.918 454.517 204.811 450.732 204.811C448.737 204.811 446.707 204.294 444.642 203.262L444.436 203.159Z"/>
<path d="M470.632 203.675C468.568 202.574 467.536 200.716 467.536 198.101C467.536 194.591 469.291 190.049 472.8 184.475L476.103 179.004C479.544 173.43 482.331 169.129 484.465 166.101C486.116 163.899 487.94 162.798 489.936 162.798C491.106 162.798 492.172 163.107 493.136 163.727C494.168 164.277 494.925 164.931 495.407 165.688C495.888 166.445 495.957 167.064 495.613 167.546C494.099 169.748 492.964 171.331 492.207 172.294C489.179 176.63 487.011 179.864 485.703 181.998C484.396 184.062 483.742 185.714 483.742 186.953C483.742 187.71 483.983 188.294 484.465 188.707C484.809 188.983 485.256 189.12 485.807 189.12C488.078 189.12 491.484 186.161 496.026 180.243C496.232 179.899 496.508 179.727 496.852 179.727C497.127 179.727 497.334 179.864 497.471 180.14C497.609 180.346 497.574 180.587 497.368 180.862C493.101 187.469 488.731 193.043 484.258 197.585C479.785 202.058 476.035 204.294 473.007 204.294C472.181 204.294 471.389 204.088 470.632 203.675ZM491.278 150.204C491.897 148.759 492.826 147.658 494.065 146.901C495.303 146.075 496.645 145.662 498.091 145.662C499.192 145.662 500.121 145.834 500.878 146.178C502.185 146.798 503.183 147.727 503.871 148.965C504.628 150.135 505.007 151.443 505.007 152.888C505.007 153.92 504.8 154.953 504.387 155.985C503.699 157.43 502.632 158.634 501.187 159.598C499.742 160.492 498.228 160.94 496.645 160.94C494.65 160.94 493.101 160.286 492 158.978C490.968 157.671 490.452 156.088 490.452 154.23C490.452 152.854 490.727 151.512 491.278 150.204Z"/>
<path d="M489.356 203.159C487.085 202.127 485.949 200.475 485.949 198.204C485.949 196.69 486.431 194.935 487.395 192.94C488.289 190.944 489.597 188.501 491.317 185.611C496.478 177.146 501.158 170.127 505.356 164.553C506.663 162.694 508.487 161.765 510.827 161.765C512.066 161.765 513.235 162.006 514.336 162.488C515.438 162.97 516.263 163.555 516.814 164.243C517.364 164.862 517.468 165.413 517.124 165.894C514.99 168.578 512.341 171.882 509.175 175.804C506.078 179.589 503.876 182.376 502.569 184.165C501.33 185.955 500.711 187.262 500.711 188.088C500.711 188.501 500.848 188.742 501.124 188.811C501.743 189.155 502.706 188.604 504.014 187.159C505.39 185.714 507.352 183.374 509.898 180.14C514.302 174.565 518.087 170.23 521.253 167.133C524.418 163.968 527.377 162.385 530.13 162.385C530.681 162.385 531.266 162.488 531.885 162.694C533.605 163.245 534.466 164.484 534.466 166.411C534.466 167.925 533.984 169.714 533.02 171.778C532.057 173.843 530.577 176.596 528.582 180.036C527.137 182.445 526.035 184.406 525.278 185.92C524.521 187.434 524.143 188.639 524.143 189.533C524.143 190.084 524.315 190.462 524.659 190.669C525.003 190.944 525.416 191.082 525.898 191.082C527.137 191.082 528.478 190.221 529.924 188.501C531.438 186.781 533.571 183.993 536.324 180.14C536.668 179.727 537.012 179.52 537.356 179.52C537.7 179.52 537.941 179.658 538.078 179.933C538.285 180.208 538.25 180.518 537.975 180.862C534.053 186.987 530.027 192.251 525.898 196.656C521.769 200.991 518.018 203.159 514.646 203.159C513.545 203.159 512.513 202.884 511.549 202.333C509.554 201.163 508.556 199.512 508.556 197.378C508.556 195.245 509.347 192.836 510.93 190.153C512.582 187.4 514.818 184.2 517.64 180.553C519.36 178.35 520.599 176.63 521.356 175.391C522.182 174.153 522.595 173.189 522.595 172.501C522.595 172.088 522.423 171.813 522.078 171.675C521.321 171.331 520.22 172.054 518.775 173.843C517.399 175.563 515.403 178.419 512.788 182.411C508.246 189.086 504.324 194.316 501.02 198.101C497.786 201.817 494.655 203.675 491.627 203.675C490.939 203.675 490.182 203.503 489.356 203.159Z"/>
<path d="M535.187 202.953C531.746 201.163 530.026 198.273 530.026 194.282C530.026 191.667 530.749 188.811 532.194 185.714C533.57 182.548 535.497 179.451 537.974 176.424C541.415 172.157 545.235 168.613 549.432 165.791C553.63 162.901 557.484 161.456 560.994 161.456C562.783 161.456 564.366 161.903 565.742 162.798C568.082 164.243 569.252 166.204 569.252 168.682C569.252 170.54 568.598 172.294 567.291 173.946C566.258 175.322 564.882 176.424 563.162 177.249C561.51 178.075 559.721 178.488 557.794 178.488C556.349 178.488 555.075 178.316 553.974 177.972C553.837 177.903 553.734 177.765 553.665 177.559C553.665 177.353 553.734 177.215 553.871 177.146C556.142 175.701 558.138 173.946 559.858 171.882C561.579 169.748 562.439 168.062 562.439 166.824C562.439 166.204 562.198 165.757 561.716 165.482C561.441 165.275 561.097 165.172 560.684 165.172C559.032 165.172 556.968 166.376 554.491 168.785C552.013 171.193 549.88 173.981 548.091 177.146C546.301 180.381 545.407 183.271 545.407 185.817C545.407 188.019 546.198 189.705 547.781 190.875C548.538 191.426 549.467 191.701 550.568 191.701C552.701 191.701 555.213 190.669 558.103 188.604C560.994 186.471 563.815 183.753 566.568 180.449C566.843 180.174 567.084 180.036 567.291 180.036C567.566 180.036 567.703 180.174 567.703 180.449C567.772 180.725 567.738 180.965 567.6 181.172C563.471 187.847 558.826 193.318 553.665 197.585C548.503 201.851 543.824 203.985 539.626 203.985C537.974 203.985 536.495 203.641 535.187 202.953Z"/>
<path d="M565.568 202.953C562.127 201.163 560.407 198.273 560.407 194.282C560.407 191.667 561.129 188.811 562.574 185.714C563.951 182.548 565.878 179.451 568.355 176.424C571.796 172.157 575.615 168.613 579.813 165.791C584.011 162.901 587.865 161.456 591.374 161.456C593.164 161.456 594.746 161.903 596.123 162.798C598.531 164.312 599.736 166.239 599.736 168.578C599.736 170.368 599.048 172.157 597.671 173.946C594.368 178.419 587.968 180.656 578.471 180.656L577.749 182.411C576.992 184.337 576.613 186.058 576.613 187.572C576.613 189.086 577.06 190.187 577.955 190.875C578.781 191.494 579.71 191.804 580.742 191.804C582.944 191.804 585.491 190.737 588.381 188.604C591.34 186.471 594.196 183.753 596.949 180.449C597.224 180.174 597.465 180.036 597.671 180.036C597.946 180.036 598.084 180.174 598.084 180.449C598.153 180.725 598.118 180.965 597.981 181.172C593.852 187.847 589.207 193.318 584.045 197.585C578.884 201.851 574.205 203.985 570.007 203.985C568.355 203.985 566.875 203.641 565.568 202.953ZM579.71 178.282C581.637 177.731 583.598 176.733 585.594 175.288C587.658 173.843 589.344 172.329 590.652 170.746C592.028 169.094 592.716 167.753 592.716 166.72C592.716 166.17 592.51 165.757 592.097 165.482C591.409 164.931 590.308 165.241 588.794 166.411C587.349 167.512 585.766 169.163 584.045 171.365C582.394 173.568 580.949 175.873 579.71 178.282Z"/>
<path d="M624.384 141.946C622.526 143.391 620.496 144.561 618.294 145.456C616.092 146.282 614.027 146.694 612.1 146.694C609.485 146.694 607.558 145.937 606.32 144.424C605.356 143.254 604.874 141.946 604.874 140.501C604.874 139.056 605.322 137.645 606.216 136.269C607.18 134.892 608.315 133.86 609.623 133.172C610.999 134.755 612.272 135.925 613.442 136.682C614.612 137.37 616.229 137.714 618.294 137.714C619.257 137.714 620.393 137.611 621.7 137.404C630.027 135.89 637.7 132.484 644.72 127.185C645.408 126.703 646.027 126.462 646.578 126.462C647.403 126.462 648.023 127.047 648.436 128.217L601.158 199.649C600.401 200.682 599.197 201.473 597.545 202.024C595.894 202.505 594.036 202.746 591.971 202.746C589.631 202.746 587.67 202.471 586.087 201.92C584.505 201.37 583.954 200.716 584.436 199.959L624.384 141.946Z"/>
<path d="M615.134 202.024C614.721 201.955 614.377 201.783 614.102 201.507C613.827 201.163 613.689 200.819 613.689 200.475C613.689 200.2 613.827 199.959 614.102 199.753C614.308 199.546 614.618 199.443 615.031 199.443C624.115 199.305 633.267 196.553 642.489 191.185C651.71 185.748 659.934 178.454 667.16 169.301L669.534 166.204C661.482 172.191 654.91 175.185 649.818 175.185C647.616 175.185 645.62 174.634 643.831 173.533C639.633 170.918 637.534 167.099 637.534 162.075C637.534 159.322 638.153 156.432 639.392 153.404C640.631 150.376 642.351 147.348 644.553 144.32C648.682 138.815 653.706 134.204 659.624 130.488C665.543 126.703 671.254 124.811 676.76 124.811C679.375 124.811 681.784 125.258 683.986 126.153C687.427 127.529 689.973 129.628 691.624 132.449C693.345 135.271 694.205 138.643 694.205 142.565C694.205 147.107 693.07 152.062 690.799 157.43C688.596 162.729 685.431 167.925 681.302 173.017C674.42 181.55 665.715 188.57 655.186 194.075C644.725 199.512 633.302 202.23 620.915 202.23C619.676 202.23 617.749 202.161 615.134 202.024ZM653.328 167.649C654.429 168.75 655.908 169.301 657.766 169.301C659.831 169.301 662.205 168.613 664.889 167.236C667.573 165.86 670.188 164.036 672.734 161.765C676.519 156.398 679.547 151.34 681.818 146.591C684.089 141.843 685.224 137.989 685.224 135.03C685.224 132.759 684.467 131.176 682.953 130.282C681.99 129.731 680.923 129.456 679.753 129.456C676.519 129.456 672.803 131.279 668.605 134.927C664.407 138.574 660.725 142.91 657.56 147.933C655.771 150.755 654.36 153.507 653.328 156.191C652.295 158.806 651.779 161.112 651.779 163.107C651.779 164.965 652.295 166.479 653.328 167.649Z"/>
<path d="M673.981 202.024C673.568 201.955 673.224 201.783 672.949 201.507C672.673 201.163 672.536 200.819 672.536 200.475C672.536 200.2 672.673 199.959 672.949 199.753C673.155 199.546 673.465 199.443 673.878 199.443C682.961 199.305 692.114 196.553 701.336 191.185C710.557 185.748 718.781 178.454 726.007 169.301L728.381 166.204C720.329 172.191 713.757 175.185 708.665 175.185C706.463 175.185 704.467 174.634 702.678 173.533C698.48 170.918 696.381 167.099 696.381 162.075C696.381 159.322 697 156.432 698.239 153.404C699.478 150.376 701.198 147.348 703.4 144.32C707.529 138.815 712.553 134.204 718.471 130.488C724.389 126.703 730.101 124.811 735.607 124.811C738.222 124.811 740.63 125.258 742.832 126.153C746.273 127.529 748.82 129.628 750.471 132.449C752.192 135.271 753.052 138.643 753.052 142.565C753.052 147.107 751.916 152.062 749.645 157.43C747.443 162.729 744.278 167.925 740.149 173.017C733.267 181.55 724.561 188.57 714.032 194.075C703.572 199.512 692.149 202.23 679.761 202.23C678.523 202.23 676.596 202.161 673.981 202.024ZM712.174 167.649C713.275 168.75 714.755 169.301 716.613 169.301C718.678 169.301 721.052 168.613 723.736 167.236C726.42 165.86 729.035 164.036 731.581 161.765C735.366 156.398 738.394 151.34 740.665 146.591C742.936 141.843 744.071 137.989 744.071 135.03C744.071 132.759 743.314 131.176 741.8 130.282C740.837 129.731 739.77 129.456 738.6 129.456C735.366 129.456 731.65 131.279 727.452 134.927C723.254 138.574 719.572 142.91 716.407 147.933C714.617 150.755 713.207 153.507 712.174 156.191C711.142 158.806 710.626 161.112 710.626 163.107C710.626 164.965 711.142 166.479 712.174 167.649Z"/>
<path d="M732.828 202.024C732.415 201.955 732.071 201.783 731.795 201.507C731.52 201.163 731.382 200.819 731.382 200.475C731.382 200.2 731.52 199.959 731.795 199.753C732.002 199.546 732.311 199.443 732.724 199.443C741.808 199.305 750.961 196.553 760.182 191.185C769.404 185.748 777.628 178.454 784.853 169.301L787.228 166.204C779.176 172.191 772.604 175.185 767.511 175.185C765.309 175.185 763.314 174.634 761.524 173.533C757.327 170.918 755.228 167.099 755.228 162.075C755.228 159.322 755.847 156.432 757.086 153.404C758.324 150.376 760.045 147.348 762.247 144.32C766.376 138.815 771.4 134.204 777.318 130.488C783.236 126.703 788.948 124.811 794.453 124.811C797.068 124.811 799.477 125.258 801.679 126.153C805.12 127.529 807.666 129.628 809.318 132.449C811.038 135.271 811.899 138.643 811.899 142.565C811.899 147.107 810.763 152.062 808.492 157.43C806.29 162.729 803.124 167.925 798.995 173.017C792.114 181.55 783.408 188.57 772.879 194.075C762.419 199.512 750.995 202.23 738.608 202.23C737.37 202.23 735.443 202.161 732.828 202.024ZM771.021 167.649C772.122 168.75 773.602 169.301 775.46 169.301C777.524 169.301 779.899 168.613 782.582 167.236C785.266 165.86 787.881 164.036 790.428 161.765C794.213 156.398 797.241 151.34 799.511 146.591C801.782 141.843 802.918 137.989 802.918 135.03C802.918 132.759 802.161 131.176 800.647 130.282C799.683 129.731 798.617 129.456 797.447 129.456C794.213 129.456 790.496 131.279 786.299 134.927C782.101 138.574 778.419 142.91 775.253 147.933C773.464 150.755 772.053 153.507 771.021 156.191C769.989 158.806 769.473 161.112 769.473 163.107C769.473 164.965 769.989 166.479 771.021 167.649Z"/>
</mask>
<path d="M444.436 203.159C442.715 202.264 441.442 201.026 440.616 199.443C439.722 197.791 439.274 195.968 439.274 193.972C439.274 191.013 440.169 188.122 441.958 185.301C443.748 182.411 446.053 180.346 448.874 179.107C449.7 178.832 450.182 178.694 450.32 178.694C450.664 178.694 450.87 178.798 450.939 179.004C451.077 179.211 451.077 179.486 450.939 179.83C449.563 182.583 448.874 184.922 448.874 186.849C448.874 188.845 449.735 190.118 451.455 190.669C452.006 190.806 452.418 190.875 452.694 190.875C455.24 190.875 457.236 188.879 458.681 184.888C460.195 180.828 460.952 176.011 460.952 170.436C460.952 167.89 461.846 165.791 463.636 164.14C465.425 162.488 467.317 161.662 469.313 161.662C470.483 161.662 471.378 161.937 471.997 162.488C473.098 163.383 473.649 164.621 473.649 166.204C473.649 167.718 473.167 169.301 472.203 170.953C471.24 172.535 469.967 173.912 468.384 175.082C468.178 175.288 468.006 175.254 467.868 174.978C467.662 174.428 467.421 173.671 467.145 172.707C466.87 171.744 466.56 171.056 466.216 170.643C465.941 170.161 465.597 170.058 465.184 170.333C464.565 170.746 464.255 171.469 464.255 172.501C464.255 172.983 464.462 174.256 464.874 176.32C465.631 179.486 466.01 182.032 466.01 183.959C466.01 186.23 465.631 188.467 464.874 190.669C465.975 190.806 467.489 189.981 469.416 188.191C471.343 186.333 473.786 183.58 476.745 179.933C476.952 179.727 477.158 179.624 477.365 179.624C477.709 179.624 477.984 179.761 478.191 180.036C478.397 180.312 478.363 180.621 478.087 180.965C472.238 189.292 467.145 195.348 462.81 199.133C458.543 202.918 454.517 204.811 450.732 204.811C448.737 204.811 446.707 204.294 444.642 203.262L444.436 203.159Z" fill="#FDB800"/>
<path d="M470.632 203.675C468.568 202.574 467.536 200.716 467.536 198.101C467.536 194.591 469.291 190.049 472.8 184.475L476.103 179.004C479.544 173.43 482.331 169.129 484.465 166.101C486.116 163.899 487.94 162.798 489.936 162.798C491.106 162.798 492.172 163.107 493.136 163.727C494.168 164.277 494.925 164.931 495.407 165.688C495.888 166.445 495.957 167.064 495.613 167.546C494.099 169.748 492.964 171.331 492.207 172.294C489.179 176.63 487.011 179.864 485.703 181.998C484.396 184.062 483.742 185.714 483.742 186.953C483.742 187.71 483.983 188.294 484.465 188.707C484.809 188.983 485.256 189.12 485.807 189.12C488.078 189.12 491.484 186.161 496.026 180.243C496.232 179.899 496.508 179.727 496.852 179.727C497.127 179.727 497.334 179.864 497.471 180.14C497.609 180.346 497.574 180.587 497.368 180.862C493.101 187.469 488.731 193.043 484.258 197.585C479.785 202.058 476.035 204.294 473.007 204.294C472.181 204.294 471.389 204.088 470.632 203.675ZM491.278 150.204C491.897 148.759 492.826 147.658 494.065 146.901C495.303 146.075 496.645 145.662 498.091 145.662C499.192 145.662 500.121 145.834 500.878 146.178C502.185 146.798 503.183 147.727 503.871 148.965C504.628 150.135 505.007 151.443 505.007 152.888C505.007 153.92 504.8 154.953 504.387 155.985C503.699 157.43 502.632 158.634 501.187 159.598C499.742 160.492 498.228 160.94 496.645 160.94C494.65 160.94 493.101 160.286 492 158.978C490.968 157.671 490.452 156.088 490.452 154.23C490.452 152.854 490.727 151.512 491.278 150.204Z" fill="#FDB800"/>
<path d="M489.356 203.159C487.085 202.127 485.949 200.475 485.949 198.204C485.949 196.69 486.431 194.935 487.395 192.94C488.289 190.944 489.597 188.501 491.317 185.611C496.478 177.146 501.158 170.127 505.356 164.553C506.663 162.694 508.487 161.765 510.827 161.765C512.066 161.765 513.235 162.006 514.336 162.488C515.438 162.97 516.263 163.555 516.814 164.243C517.364 164.862 517.468 165.413 517.124 165.894C514.99 168.578 512.341 171.882 509.175 175.804C506.078 179.589 503.876 182.376 502.569 184.165C501.33 185.955 500.711 187.262 500.711 188.088C500.711 188.501 500.848 188.742 501.124 188.811C501.743 189.155 502.706 188.604 504.014 187.159C505.39 185.714 507.352 183.374 509.898 180.14C514.302 174.565 518.087 170.23 521.253 167.133C524.418 163.968 527.377 162.385 530.13 162.385C530.681 162.385 531.266 162.488 531.885 162.694C533.605 163.245 534.466 164.484 534.466 166.411C534.466 167.925 533.984 169.714 533.02 171.778C532.057 173.843 530.577 176.596 528.582 180.036C527.137 182.445 526.035 184.406 525.278 185.92C524.521 187.434 524.143 188.639 524.143 189.533C524.143 190.084 524.315 190.462 524.659 190.669C525.003 190.944 525.416 191.082 525.898 191.082C527.137 191.082 528.478 190.221 529.924 188.501C531.438 186.781 533.571 183.993 536.324 180.14C536.668 179.727 537.012 179.52 537.356 179.52C537.7 179.52 537.941 179.658 538.078 179.933C538.285 180.208 538.25 180.518 537.975 180.862C534.053 186.987 530.027 192.251 525.898 196.656C521.769 200.991 518.018 203.159 514.646 203.159C513.545 203.159 512.513 202.884 511.549 202.333C509.554 201.163 508.556 199.512 508.556 197.378C508.556 195.245 509.347 192.836 510.93 190.153C512.582 187.4 514.818 184.2 517.64 180.553C519.36 178.35 520.599 176.63 521.356 175.391C522.182 174.153 522.595 173.189 522.595 172.501C522.595 172.088 522.423 171.813 522.078 171.675C521.321 171.331 520.22 172.054 518.775 173.843C517.399 175.563 515.403 178.419 512.788 182.411C508.246 189.086 504.324 194.316 501.02 198.101C497.786 201.817 494.655 203.675 491.627 203.675C490.939 203.675 490.182 203.503 489.356 203.159Z" fill="#FDB800"/>
<path d="M535.187 202.953C531.746 201.163 530.026 198.273 530.026 194.282C530.026 191.667 530.749 188.811 532.194 185.714C533.57 182.548 535.497 179.451 537.974 176.424C541.415 172.157 545.235 168.613 549.432 165.791C553.63 162.901 557.484 161.456 560.994 161.456C562.783 161.456 564.366 161.903 565.742 162.798C568.082 164.243 569.252 166.204 569.252 168.682C569.252 170.54 568.598 172.294 567.291 173.946C566.258 175.322 564.882 176.424 563.162 177.249C561.51 178.075 559.721 178.488 557.794 178.488C556.349 178.488 555.075 178.316 553.974 177.972C553.837 177.903 553.734 177.765 553.665 177.559C553.665 177.353 553.734 177.215 553.871 177.146C556.142 175.701 558.138 173.946 559.858 171.882C561.579 169.748 562.439 168.062 562.439 166.824C562.439 166.204 562.198 165.757 561.716 165.482C561.441 165.275 561.097 165.172 560.684 165.172C559.032 165.172 556.968 166.376 554.491 168.785C552.013 171.193 549.88 173.981 548.091 177.146C546.301 180.381 545.407 183.271 545.407 185.817C545.407 188.019 546.198 189.705 547.781 190.875C548.538 191.426 549.467 191.701 550.568 191.701C552.701 191.701 555.213 190.669 558.103 188.604C560.994 186.471 563.815 183.753 566.568 180.449C566.843 180.174 567.084 180.036 567.291 180.036C567.566 180.036 567.703 180.174 567.703 180.449C567.772 180.725 567.738 180.965 567.6 181.172C563.471 187.847 558.826 193.318 553.665 197.585C548.503 201.851 543.824 203.985 539.626 203.985C537.974 203.985 536.495 203.641 535.187 202.953Z" fill="#FDB800"/>
<path d="M565.568 202.953C562.127 201.163 560.407 198.273 560.407 194.282C560.407 191.667 561.129 188.811 562.574 185.714C563.951 182.548 565.878 179.451 568.355 176.424C571.796 172.157 575.615 168.613 579.813 165.791C584.011 162.901 587.865 161.456 591.374 161.456C593.164 161.456 594.746 161.903 596.123 162.798C598.531 164.312 599.736 166.239 599.736 168.578C599.736 170.368 599.048 172.157 597.671 173.946C594.368 178.419 587.968 180.656 578.471 180.656L577.749 182.411C576.992 184.337 576.613 186.058 576.613 187.572C576.613 189.086 577.06 190.187 577.955 190.875C578.781 191.494 579.71 191.804 580.742 191.804C582.944 191.804 585.491 190.737 588.381 188.604C591.34 186.471 594.196 183.753 596.949 180.449C597.224 180.174 597.465 180.036 597.671 180.036C597.946 180.036 598.084 180.174 598.084 180.449C598.153 180.725 598.118 180.965 597.981 181.172C593.852 187.847 589.207 193.318 584.045 197.585C578.884 201.851 574.205 203.985 570.007 203.985C568.355 203.985 566.875 203.641 565.568 202.953ZM579.71 178.282C581.637 177.731 583.598 176.733 585.594 175.288C587.658 173.843 589.344 172.329 590.652 170.746C592.028 169.094 592.716 167.753 592.716 166.72C592.716 166.17 592.51 165.757 592.097 165.482C591.409 164.931 590.308 165.241 588.794 166.411C587.349 167.512 585.766 169.163 584.045 171.365C582.394 173.568 580.949 175.873 579.71 178.282Z" fill="#FDB800"/>
<path d="M624.384 141.946C622.526 143.391 620.496 144.561 618.294 145.456C616.092 146.282 614.027 146.694 612.1 146.694C609.485 146.694 607.558 145.937 606.32 144.424C605.356 143.254 604.874 141.946 604.874 140.501C604.874 139.056 605.322 137.645 606.216 136.269C607.18 134.892 608.315 133.86 609.623 133.172C610.999 134.755 612.272 135.925 613.442 136.682C614.612 137.37 616.229 137.714 618.294 137.714C619.257 137.714 620.393 137.611 621.7 137.404C630.027 135.89 637.7 132.484 644.72 127.185C645.408 126.703 646.027 126.462 646.578 126.462C647.403 126.462 648.023 127.047 648.436 128.217L601.158 199.649C600.401 200.682 599.197 201.473 597.545 202.024C595.894 202.505 594.036 202.746 591.971 202.746C589.631 202.746 587.67 202.471 586.087 201.92C584.505 201.37 583.954 200.716 584.436 199.959L624.384 141.946Z" fill="#FDB800"/>
<path d="M615.134 202.024C614.721 201.955 614.377 201.783 614.102 201.507C613.827 201.163 613.689 200.819 613.689 200.475C613.689 200.2 613.827 199.959 614.102 199.753C614.308 199.546 614.618 199.443 615.031 199.443C624.115 199.305 633.267 196.553 642.489 191.185C651.71 185.748 659.934 178.454 667.16 169.301L669.534 166.204C661.482 172.191 654.91 175.185 649.818 175.185C647.616 175.185 645.62 174.634 643.831 173.533C639.633 170.918 637.534 167.099 637.534 162.075C637.534 159.322 638.153 156.432 639.392 153.404C640.631 150.376 642.351 147.348 644.553 144.32C648.682 138.815 653.706 134.204 659.624 130.488C665.543 126.703 671.254 124.811 676.76 124.811C679.375 124.811 681.784 125.258 683.986 126.153C687.427 127.529 689.973 129.628 691.624 132.449C693.345 135.271 694.205 138.643 694.205 142.565C694.205 147.107 693.07 152.062 690.799 157.43C688.596 162.729 685.431 167.925 681.302 173.017C674.42 181.55 665.715 188.57 655.186 194.075C644.725 199.512 633.302 202.23 620.915 202.23C619.676 202.23 617.749 202.161 615.134 202.024ZM653.328 167.649C654.429 168.75 655.908 169.301 657.766 169.301C659.831 169.301 662.205 168.613 664.889 167.236C667.573 165.86 670.188 164.036 672.734 161.765C676.519 156.398 679.547 151.34 681.818 146.591C684.089 141.843 685.224 137.989 685.224 135.03C685.224 132.759 684.467 131.176 682.953 130.282C681.99 129.731 680.923 129.456 679.753 129.456C676.519 129.456 672.803 131.279 668.605 134.927C664.407 138.574 660.725 142.91 657.56 147.933C655.771 150.755 654.36 153.507 653.328 156.191C652.295 158.806 651.779 161.112 651.779 163.107C651.779 164.965 652.295 166.479 653.328 167.649Z" fill="#FDB800"/>
<path d="M673.981 202.024C673.568 201.955 673.224 201.783 672.949 201.507C672.673 201.163 672.536 200.819 672.536 200.475C672.536 200.2 672.673 199.959 672.949 199.753C673.155 199.546 673.465 199.443 673.878 199.443C682.961 199.305 692.114 196.553 701.336 191.185C710.557 185.748 718.781 178.454 726.007 169.301L728.381 166.204C720.329 172.191 713.757 175.185 708.665 175.185C706.463 175.185 704.467 174.634 702.678 173.533C698.48 170.918 696.381 167.099 696.381 162.075C696.381 159.322 697 156.432 698.239 153.404C699.478 150.376 701.198 147.348 703.4 144.32C707.529 138.815 712.553 134.204 718.471 130.488C724.389 126.703 730.101 124.811 735.607 124.811C738.222 124.811 740.63 125.258 742.832 126.153C746.273 127.529 748.82 129.628 750.471 132.449C752.192 135.271 753.052 138.643 753.052 142.565C753.052 147.107 751.916 152.062 749.645 157.43C747.443 162.729 744.278 167.925 740.149 173.017C733.267 181.55 724.561 188.57 714.032 194.075C703.572 199.512 692.149 202.23 679.761 202.23C678.523 202.23 676.596 202.161 673.981 202.024ZM712.174 167.649C713.275 168.75 714.755 169.301 716.613 169.301C718.678 169.301 721.052 168.613 723.736 167.236C726.42 165.86 729.035 164.036 731.581 161.765C735.366 156.398 738.394 151.34 740.665 146.591C742.936 141.843 744.071 137.989 744.071 135.03C744.071 132.759 743.314 131.176 741.8 130.282C740.837 129.731 739.77 129.456 738.6 129.456C735.366 129.456 731.65 131.279 727.452 134.927C723.254 138.574 719.572 142.91 716.407 147.933C714.617 150.755 713.207 153.507 712.174 156.191C711.142 158.806 710.626 161.112 710.626 163.107C710.626 164.965 711.142 166.479 712.174 167.649Z" fill="#FDB800"/>
<path d="M732.828 202.024C732.415 201.955 732.071 201.783 731.795 201.507C731.52 201.163 731.382 200.819 731.382 200.475C731.382 200.2 731.52 199.959 731.795 199.753C732.002 199.546 732.311 199.443 732.724 199.443C741.808 199.305 750.961 196.553 760.182 191.185C769.404 185.748 777.628 178.454 784.853 169.301L787.228 166.204C779.176 172.191 772.604 175.185 767.511 175.185C765.309 175.185 763.314 174.634 761.524 173.533C757.327 170.918 755.228 167.099 755.228 162.075C755.228 159.322 755.847 156.432 757.086 153.404C758.324 150.376 760.045 147.348 762.247 144.32C766.376 138.815 771.4 134.204 777.318 130.488C783.236 126.703 788.948 124.811 794.453 124.811C797.068 124.811 799.477 125.258 801.679 126.153C805.12 127.529 807.666 129.628 809.318 132.449C811.038 135.271 811.899 138.643 811.899 142.565C811.899 147.107 810.763 152.062 808.492 157.43C806.29 162.729 803.124 167.925 798.995 173.017C792.114 181.55 783.408 188.57 772.879 194.075C762.419 199.512 750.995 202.23 738.608 202.23C737.37 202.23 735.443 202.161 732.828 202.024ZM771.021 167.649C772.122 168.75 773.602 169.301 775.46 169.301C777.524 169.301 779.899 168.613 782.582 167.236C785.266 165.86 787.881 164.036 790.428 161.765C794.213 156.398 797.241 151.34 799.511 146.591C801.782 141.843 802.918 137.989 802.918 135.03C802.918 132.759 802.161 131.176 800.647 130.282C799.683 129.731 798.617 129.456 797.447 129.456C794.213 129.456 790.496 131.279 786.299 134.927C782.101 138.574 778.419 142.91 775.253 147.933C773.464 150.755 772.053 153.507 771.021 156.191C769.989 158.806 769.473 161.112 769.473 163.107C769.473 164.965 769.989 166.479 771.021 167.649Z" fill="#FDB800"/>
<path d="M444.436 203.159C442.715 202.264 441.442 201.026 440.616 199.443C439.722 197.791 439.274 195.968 439.274 193.972C439.274 191.013 440.169 188.122 441.958 185.301C443.748 182.411 446.053 180.346 448.874 179.107C449.7 178.832 450.182 178.694 450.32 178.694C450.664 178.694 450.87 178.798 450.939 179.004C451.077 179.211 451.077 179.486 450.939 179.83C449.563 182.583 448.874 184.922 448.874 186.849C448.874 188.845 449.735 190.118 451.455 190.669C452.006 190.806 452.418 190.875 452.694 190.875C455.24 190.875 457.236 188.879 458.681 184.888C460.195 180.828 460.952 176.011 460.952 170.436C460.952 167.89 461.846 165.791 463.636 164.14C465.425 162.488 467.317 161.662 469.313 161.662C470.483 161.662 471.378 161.937 471.997 162.488C473.098 163.383 473.649 164.621 473.649 166.204C473.649 167.718 473.167 169.301 472.203 170.953C471.24 172.535 469.967 173.912 468.384 175.082C468.178 175.288 468.006 175.254 467.868 174.978C467.662 174.428 467.421 173.671 467.145 172.707C466.87 171.744 466.56 171.056 466.216 170.643C465.941 170.161 465.597 170.058 465.184 170.333C464.565 170.746 464.255 171.469 464.255 172.501C464.255 172.983 464.462 174.256 464.874 176.32C465.631 179.486 466.01 182.032 466.01 183.959C466.01 186.23 465.631 188.467 464.874 190.669C465.975 190.806 467.489 189.981 469.416 188.191C471.343 186.333 473.786 183.58 476.745 179.933C476.952 179.727 477.158 179.624 477.365 179.624C477.709 179.624 477.984 179.761 478.191 180.036C478.397 180.312 478.363 180.621 478.087 180.965C472.238 189.292 467.145 195.348 462.81 199.133C458.543 202.918 454.517 204.811 450.732 204.811C448.737 204.811 446.707 204.294 444.642 203.262L444.436 203.159Z" stroke="#E73226" stroke-width="5.35022" mask="url(#path-2-outside-1_1627_18)"/>
<path d="M470.632 203.675C468.568 202.574 467.536 200.716 467.536 198.101C467.536 194.591 469.291 190.049 472.8 184.475L476.103 179.004C479.544 173.43 482.331 169.129 484.465 166.101C486.116 163.899 487.94 162.798 489.936 162.798C491.106 162.798 492.172 163.107 493.136 163.727C494.168 164.277 494.925 164.931 495.407 165.688C495.888 166.445 495.957 167.064 495.613 167.546C494.099 169.748 492.964 171.331 492.207 172.294C489.179 176.63 487.011 179.864 485.703 181.998C484.396 184.062 483.742 185.714 483.742 186.953C483.742 187.71 483.983 188.294 484.465 188.707C484.809 188.983 485.256 189.12 485.807 189.12C488.078 189.12 491.484 186.161 496.026 180.243C496.232 179.899 496.508 179.727 496.852 179.727C497.127 179.727 497.334 179.864 497.471 180.14C497.609 180.346 497.574 180.587 497.368 180.862C493.101 187.469 488.731 193.043 484.258 197.585C479.785 202.058 476.035 204.294 473.007 204.294C472.181 204.294 471.389 204.088 470.632 203.675ZM491.278 150.204C491.897 148.759 492.826 147.658 494.065 146.901C495.303 146.075 496.645 145.662 498.091 145.662C499.192 145.662 500.121 145.834 500.878 146.178C502.185 146.798 503.183 147.727 503.871 148.965C504.628 150.135 505.007 151.443 505.007 152.888C505.007 153.92 504.8 154.953 504.387 155.985C503.699 157.43 502.632 158.634 501.187 159.598C499.742 160.492 498.228 160.94 496.645 160.94C494.65 160.94 493.101 160.286 492 158.978C490.968 157.671 490.452 156.088 490.452 154.23C490.452 152.854 490.727 151.512 491.278 150.204Z" stroke="#E73226" stroke-width="5.35022" mask="url(#path-2-outside-1_1627_18)"/>
<path d="M489.356 203.159C487.085 202.127 485.949 200.475 485.949 198.204C485.949 196.69 486.431 194.935 487.395 192.94C488.289 190.944 489.597 188.501 491.317 185.611C496.478 177.146 501.158 170.127 505.356 164.553C506.663 162.694 508.487 161.765 510.827 161.765C512.066 161.765 513.235 162.006 514.336 162.488C515.438 162.97 516.263 163.555 516.814 164.243C517.364 164.862 517.468 165.413 517.124 165.894C514.99 168.578 512.341 171.882 509.175 175.804C506.078 179.589 503.876 182.376 502.569 184.165C501.33 185.955 500.711 187.262 500.711 188.088C500.711 188.501 500.848 188.742 501.124 188.811C501.743 189.155 502.706 188.604 504.014 187.159C505.39 185.714 507.352 183.374 509.898 180.14C514.302 174.565 518.087 170.23 521.253 167.133C524.418 163.968 527.377 162.385 530.13 162.385C530.681 162.385 531.266 162.488 531.885 162.694C533.605 163.245 534.466 164.484 534.466 166.411C534.466 167.925 533.984 169.714 533.02 171.778C532.057 173.843 530.577 176.596 528.582 180.036C527.137 182.445 526.035 184.406 525.278 185.92C524.521 187.434 524.143 188.639 524.143 189.533C524.143 190.084 524.315 190.462 524.659 190.669C525.003 190.944 525.416 191.082 525.898 191.082C527.137 191.082 528.478 190.221 529.924 188.501C531.438 186.781 533.571 183.993 536.324 180.14C536.668 179.727 537.012 179.52 537.356 179.52C537.7 179.52 537.941 179.658 538.078 179.933C538.285 180.208 538.25 180.518 537.975 180.862C534.053 186.987 530.027 192.251 525.898 196.656C521.769 200.991 518.018 203.159 514.646 203.159C513.545 203.159 512.513 202.884 511.549 202.333C509.554 201.163 508.556 199.512 508.556 197.378C508.556 195.245 509.347 192.836 510.93 190.153C512.582 187.4 514.818 184.2 517.64 180.553C519.36 178.35 520.599 176.63 521.356 175.391C522.182 174.153 522.595 173.189 522.595 172.501C522.595 172.088 522.423 171.813 522.078 171.675C521.321 171.331 520.22 172.054 518.775 173.843C517.399 175.563 515.403 178.419 512.788 182.411C508.246 189.086 504.324 194.316 501.02 198.101C497.786 201.817 494.655 203.675 491.627 203.675C490.939 203.675 490.182 203.503 489.356 203.159Z" stroke="#E73226" stroke-width="5.35022" mask="url(#path-2-outside-1_1627_18)"/>
<path d="M535.187 202.953C531.746 201.163 530.026 198.273 530.026 194.282C530.026 191.667 530.749 188.811 532.194 185.714C533.57 182.548 535.497 179.451 537.974 176.424C541.415 172.157 545.235 168.613 549.432 165.791C553.63 162.901 557.484 161.456 560.994 161.456C562.783 161.456 564.366 161.903 565.742 162.798C568.082 164.243 569.252 166.204 569.252 168.682C569.252 170.54 568.598 172.294 567.291 173.946C566.258 175.322 564.882 176.424 563.162 177.249C561.51 178.075 559.721 178.488 557.794 178.488C556.349 178.488 555.075 178.316 553.974 177.972C553.837 177.903 553.734 177.765 553.665 177.559C553.665 177.353 553.734 177.215 553.871 177.146C556.142 175.701 558.138 173.946 559.858 171.882C561.579 169.748 562.439 168.062 562.439 166.824C562.439 166.204 562.198 165.757 561.716 165.482C561.441 165.275 561.097 165.172 560.684 165.172C559.032 165.172 556.968 166.376 554.491 168.785C552.013 171.193 549.88 173.981 548.091 177.146C546.301 180.381 545.407 183.271 545.407 185.817C545.407 188.019 546.198 189.705 547.781 190.875C548.538 191.426 549.467 191.701 550.568 191.701C552.701 191.701 555.213 190.669 558.103 188.604C560.994 186.471 563.815 183.753 566.568 180.449C566.843 180.174 567.084 180.036 567.291 180.036C567.566 180.036 567.703 180.174 567.703 180.449C567.772 180.725 567.738 180.965 567.6 181.172C563.471 187.847 558.826 193.318 553.665 197.585C548.503 201.851 543.824 203.985 539.626 203.985C537.974 203.985 536.495 203.641 535.187 202.953Z" stroke="#E73226" stroke-width="5.35022" mask="url(#path-2-outside-1_1627_18)"/>
<path d="M565.568 202.953C562.127 201.163 560.407 198.273 560.407 194.282C560.407 191.667 561.129 188.811 562.574 185.714C563.951 182.548 565.878 179.451 568.355 176.424C571.796 172.157 575.615 168.613 579.813 165.791C584.011 162.901 587.865 161.456 591.374 161.456C593.164 161.456 594.746 161.903 596.123 162.798C598.531 164.312 599.736 166.239 599.736 168.578C599.736 170.368 599.048 172.157 597.671 173.946C594.368 178.419 587.968 180.656 578.471 180.656L577.749 182.411C576.992 184.337 576.613 186.058 576.613 187.572C576.613 189.086 577.06 190.187 577.955 190.875C578.781 191.494 579.71 191.804 580.742 191.804C582.944 191.804 585.491 190.737 588.381 188.604C591.34 186.471 594.196 183.753 596.949 180.449C597.224 180.174 597.465 180.036 597.671 180.036C597.946 180.036 598.084 180.174 598.084 180.449C598.153 180.725 598.118 180.965 597.981 181.172C593.852 187.847 589.207 193.318 584.045 197.585C578.884 201.851 574.205 203.985 570.007 203.985C568.355 203.985 566.875 203.641 565.568 202.953ZM579.71 178.282C581.637 177.731 583.598 176.733 585.594 175.288C587.658 173.843 589.344 172.329 590.652 170.746C592.028 169.094 592.716 167.753 592.716 166.72C592.716 166.17 592.51 165.757 592.097 165.482C591.409 164.931 590.308 165.241 588.794 166.411C587.349 167.512 585.766 169.163 584.045 171.365C582.394 173.568 580.949 175.873 579.71 178.282Z" stroke="#E73226" stroke-width="5.35022" mask="url(#path-2-outside-1_1627_18)"/>
<path d="M624.384 141.946C622.526 143.391 620.496 144.561 618.294 145.456C616.092 146.282 614.027 146.694 612.1 146.694C609.485 146.694 607.558 145.937 606.32 144.424C605.356 143.254 604.874 141.946 604.874 140.501C604.874 139.056 605.322 137.645 606.216 136.269C607.18 134.892 608.315 133.86 609.623 133.172C610.999 134.755 612.272 135.925 613.442 136.682C614.612 137.37 616.229 137.714 618.294 137.714C619.257 137.714 620.393 137.611 621.7 137.404C630.027 135.89 637.7 132.484 644.72 127.185C645.408 126.703 646.027 126.462 646.578 126.462C647.403 126.462 648.023 127.047 648.436 128.217L601.158 199.649C600.401 200.682 599.197 201.473 597.545 202.024C595.894 202.505 594.036 202.746 591.971 202.746C589.631 202.746 587.67 202.471 586.087 201.92C584.505 201.37 583.954 200.716 584.436 199.959L624.384 141.946Z" stroke="#E73226" stroke-width="5.35022" mask="url(#path-2-outside-1_1627_18)"/>
<path d="M615.134 202.024C614.721 201.955 614.377 201.783 614.102 201.507C613.827 201.163 613.689 200.819 613.689 200.475C613.689 200.2 613.827 199.959 614.102 199.753C614.308 199.546 614.618 199.443 615.031 199.443C624.115 199.305 633.267 196.553 642.489 191.185C651.71 185.748 659.934 178.454 667.16 169.301L669.534 166.204C661.482 172.191 654.91 175.185 649.818 175.185C647.616 175.185 645.62 174.634 643.831 173.533C639.633 170.918 637.534 167.099 637.534 162.075C637.534 159.322 638.153 156.432 639.392 153.404C640.631 150.376 642.351 147.348 644.553 144.32C648.682 138.815 653.706 134.204 659.624 130.488C665.543 126.703 671.254 124.811 676.76 124.811C679.375 124.811 681.784 125.258 683.986 126.153C687.427 127.529 689.973 129.628 691.624 132.449C693.345 135.271 694.205 138.643 694.205 142.565C694.205 147.107 693.07 152.062 690.799 157.43C688.596 162.729 685.431 167.925 681.302 173.017C674.42 181.55 665.715 188.57 655.186 194.075C644.725 199.512 633.302 202.23 620.915 202.23C619.676 202.23 617.749 202.161 615.134 202.024ZM653.328 167.649C654.429 168.75 655.908 169.301 657.766 169.301C659.831 169.301 662.205 168.613 664.889 167.236C667.573 165.86 670.188 164.036 672.734 161.765C676.519 156.398 679.547 151.34 681.818 146.591C684.089 141.843 685.224 137.989 685.224 135.03C685.224 132.759 684.467 131.176 682.953 130.282C681.99 129.731 680.923 129.456 679.753 129.456C676.519 129.456 672.803 131.279 668.605 134.927C664.407 138.574 660.725 142.91 657.56 147.933C655.771 150.755 654.36 153.507 653.328 156.191C652.295 158.806 651.779 161.112 651.779 163.107C651.779 164.965 652.295 166.479 653.328 167.649Z" stroke="#E73226" stroke-width="5.35022" mask="url(#path-2-outside-1_1627_18)"/>
<path d="M673.981 202.024C673.568 201.955 673.224 201.783 672.949 201.507C672.673 201.163 672.536 200.819 672.536 200.475C672.536 200.2 672.673 199.959 672.949 199.753C673.155 199.546 673.465 199.443 673.878 199.443C682.961 199.305 692.114 196.553 701.336 191.185C710.557 185.748 718.781 178.454 726.007 169.301L728.381 166.204C720.329 172.191 713.757 175.185 708.665 175.185C706.463 175.185 704.467 174.634 702.678 173.533C698.48 170.918 696.381 167.099 696.381 162.075C696.381 159.322 697 156.432 698.239 153.404C699.478 150.376 701.198 147.348 703.4 144.32C707.529 138.815 712.553 134.204 718.471 130.488C724.389 126.703 730.101 124.811 735.607 124.811C738.222 124.811 740.63 125.258 742.832 126.153C746.273 127.529 748.82 129.628 750.471 132.449C752.192 135.271 753.052 138.643 753.052 142.565C753.052 147.107 751.916 152.062 749.645 157.43C747.443 162.729 744.278 167.925 740.149 173.017C733.267 181.55 724.561 188.57 714.032 194.075C703.572 199.512 692.149 202.23 679.761 202.23C678.523 202.23 676.596 202.161 673.981 202.024ZM712.174 167.649C713.275 168.75 714.755 169.301 716.613 169.301C718.678 169.301 721.052 168.613 723.736 167.236C726.42 165.86 729.035 164.036 731.581 161.765C735.366 156.398 738.394 151.34 740.665 146.591C742.936 141.843 744.071 137.989 744.071 135.03C744.071 132.759 743.314 131.176 741.8 130.282C740.837 129.731 739.77 129.456 738.6 129.456C735.366 129.456 731.65 131.279 727.452 134.927C723.254 138.574 719.572 142.91 716.407 147.933C714.617 150.755 713.207 153.507 712.174 156.191C711.142 158.806 710.626 161.112 710.626 163.107C710.626 164.965 711.142 166.479 712.174 167.649Z" stroke="#E73226" stroke-width="5.35022" mask="url(#path-2-outside-1_1627_18)"/>
<path d="M732.828 202.024C732.415 201.955 732.071 201.783 731.795 201.507C731.52 201.163 731.382 200.819 731.382 200.475C731.382 200.2 731.52 199.959 731.795 199.753C732.002 199.546 732.311 199.443 732.724 199.443C741.808 199.305 750.961 196.553 760.182 191.185C769.404 185.748 777.628 178.454 784.853 169.301L787.228 166.204C779.176 172.191 772.604 175.185 767.511 175.185C765.309 175.185 763.314 174.634 761.524 173.533C757.327 170.918 755.228 167.099 755.228 162.075C755.228 159.322 755.847 156.432 757.086 153.404C758.324 150.376 760.045 147.348 762.247 144.32C766.376 138.815 771.4 134.204 777.318 130.488C783.236 126.703 788.948 124.811 794.453 124.811C797.068 124.811 799.477 125.258 801.679 126.153C805.12 127.529 807.666 129.628 809.318 132.449C811.038 135.271 811.899 138.643 811.899 142.565C811.899 147.107 810.763 152.062 808.492 157.43C806.29 162.729 803.124 167.925 798.995 173.017C792.114 181.55 783.408 188.57 772.879 194.075C762.419 199.512 750.995 202.23 738.608 202.23C737.37 202.23 735.443 202.161 732.828 202.024ZM771.021 167.649C772.122 168.75 773.602 169.301 775.46 169.301C777.524 169.301 779.899 168.613 782.582 167.236C785.266 165.86 787.881 164.036 790.428 161.765C794.213 156.398 797.241 151.34 799.511 146.591C801.782 141.843 802.918 137.989 802.918 135.03C802.918 132.759 802.161 131.176 800.647 130.282C799.683 129.731 798.617 129.456 797.447 129.456C794.213 129.456 790.496 131.279 786.299 134.927C782.101 138.574 778.419 142.91 775.253 147.933C773.464 150.755 772.053 153.507 771.021 156.191C769.989 158.806 769.473 161.112 769.473 163.107C769.473 164.965 769.989 166.479 771.021 167.649Z" stroke="#E73226" stroke-width="5.35022" mask="url(#path-2-outside-1_1627_18)"/>
</svg>
